<svg width="451.78" height="42.078" viewBox="0 0 451.78 42.078" xmlns="http://www.w3.org/2000/svg"><g id="svgGroup" stroke-linecap="round" fill-rule="evenodd" font-size="9pt" stroke="#000" stroke-width="0.25mm" fill="white" style="stroke:#000;stroke-width:0.25mm;fill:black"><path d="M 309.793 5.911 L 309.771 30.63 Q 309.771 33.047 308.342 33.047 A 1.869 1.869 0 0 1 307.609 32.88 Q 306.749 32.511 305.662 31.333 A 533.533 533.533 0 0 1 303.052 28.541 Q 298.743 23.903 290.378 14.776 A 8902.98 8902.98 0 0 1 284.876 8.767 L 284.876 28.323 A 0.386 0.386 0 0 0 284.966 28.557 Q 285.145 28.792 285.681 29.03 A 5.321 5.321 0 0 0 285.798 29.081 L 287.644 29.85 Q 288.567 30.235 288.567 30.608 A 1.65 1.65 0 0 1 288.178 31.673 A 2.217 2.217 0 0 1 288.04 31.828 A 3.229 3.229 0 0 1 287.157 32.46 A 4.068 4.068 0 0 1 286.699 32.652 Q 284.009 33.548 280.747 33.01 A 17.958 17.958 0 0 1 279.251 32.695 A 5.449 5.449 0 0 1 278.369 32.398 Q 277.926 32.201 277.626 31.942 A 1.743 1.743 0 0 1 276.987 30.564 Q 276.987 30.037 277.943 29.773 Q 278.899 29.509 279.844 29.213 Q 280.605 28.974 280.753 28.542 A 0.672 0.672 0 0 0 280.789 28.323 L 280.789 5.449 A 0.295 0.295 0 0 0 280.677 5.243 Q 280.354 4.936 279.091 4.592 A 17.635 17.635 0 0 0 278.888 4.537 A 14.782 14.782 0 0 1 278.291 4.37 Q 277.088 4.002 276.995 3.68 A 0.194 0.194 0 0 1 276.987 3.626 Q 276.987 3.208 277.152 2.868 A 1.197 1.197 0 0 1 277.532 2.42 A 1.544 1.544 0 0 1 277.691 2.318 A 4.929 4.929 0 0 1 278.298 2.03 A 4.409 4.409 0 0 1 278.438 1.978 A 2.43 2.43 0 0 1 278.726 1.897 Q 278.878 1.864 279.059 1.84 A 6.284 6.284 0 0 1 279.448 1.802 A 15.693 15.693 0 0 1 280.127 1.752 Q 280.48 1.733 280.887 1.723 A 37.472 37.472 0 0 1 281.755 1.714 L 282.041 1.714 Q 284.458 1.714 285.051 2.241 L 285.051 2.219 L 305.706 24.61 L 305.706 21.731 L 305.684 21.577 L 305.684 5.911 A 0.209 0.209 0 0 0 305.603 5.775 Q 305.292 5.48 303.794 4.922 A 20.394 20.394 0 0 1 303.2 4.691 Q 302.127 4.253 301.943 3.991 A 0.18 0.18 0 0 1 301.904 3.889 Q 301.904 3.032 302.805 2.351 A 6.373 6.373 0 0 1 305.587 1.162 A 8.68 8.68 0 0 1 307.112 1.033 A 21.166 21.166 0 0 1 309.182 1.125 Q 311.214 1.326 312.277 1.965 A 2.152 2.152 0 0 1 313.44 3.889 Q 313.44 4.175 311.616 4.9 A 22.464 22.464 0 0 0 311.043 5.136 Q 309.793 5.674 309.793 5.911 Z M 92.527 32.564 L 90.198 32.586 A 16.695 16.695 0 0 1 88.962 32.544 Q 86.854 32.386 86.265 31.641 Q 85.935 31.223 85.935 30.674 Q 85.935 30.125 86.342 29.916 A 2.293 2.293 0 0 1 86.684 29.776 Q 86.861 29.719 87.072 29.676 A 5.094 5.094 0 0 1 87.418 29.619 A 7.53 7.53 0 0 0 87.728 29.573 Q 88.154 29.498 88.352 29.4 A 1.388 1.388 0 0 0 89.149 28.404 A 2.449 2.449 0 0 0 89.209 27.839 L 89.209 18.018 L 70.379 18.018 L 70.379 27.839 Q 70.379 28.425 70.568 28.805 A 1.18 1.18 0 0 0 70.895 29.213 A 2.258 2.258 0 0 0 71.778 29.632 A 2.908 2.908 0 0 0 72.158 29.696 A 20.103 20.103 0 0 1 72.419 29.725 Q 72.942 29.785 73.103 29.839 Q 73.687 29.969 73.696 30.651 A 1.636 1.636 0 0 1 73.696 30.674 A 2.424 2.424 0 0 1 73.658 31.122 Q 73.61 31.375 73.504 31.575 A 1.278 1.278 0 0 1 73.367 31.784 Q 73.058 32.165 72.266 32.324 A 4.396 4.396 0 0 1 72.158 32.344 Q 71.038 32.564 67.962 32.564 Q 65.5 32.564 64.474 32.451 A 4.496 4.496 0 0 1 64.05 32.388 A 3.558 3.558 0 0 1 63.326 32.121 Q 62.343 31.618 62.293 30.586 A 0.709 0.709 0 0 1 62.626 29.987 Q 62.999 29.724 63.787 29.619 Q 64.451 29.516 64.703 29.412 A 0.84 0.84 0 0 0 64.732 29.4 Q 65.557 29.061 65.587 27.928 A 3.277 3.277 0 0 0 65.588 27.839 L 65.588 6.416 A 2.47 2.47 0 0 0 65.498 5.718 Q 65.267 4.935 64.446 4.702 A 2.617 2.617 0 0 0 63.941 4.614 A 10.023 10.023 0 0 1 63.466 4.566 Q 62.545 4.449 62.428 4.204 A 0.185 0.185 0 0 1 62.424 4.197 Q 62.329 3.973 62.302 3.646 A 3.291 3.291 0 0 1 62.293 3.384 A 1.411 1.411 0 0 1 62.622 2.472 A 1.182 1.182 0 0 1 62.944 2.203 Q 63.273 2.008 63.809 1.912 A 7.895 7.895 0 0 1 64.432 1.83 Q 65.346 1.741 66.936 1.72 A 79.47 79.47 0 0 1 67.973 1.714 Q 70.425 1.714 71.464 1.827 A 4.753 4.753 0 0 1 71.895 1.89 Q 72.83 2.112 73.28 2.608 A 1.634 1.634 0 0 1 73.696 3.692 A 0.716 0.716 0 0 1 73.347 4.306 Q 73.049 4.508 72.496 4.609 A 5.154 5.154 0 0 1 72.158 4.658 Q 71.477 4.724 71.235 4.834 Q 70.429 5.165 70.381 6.275 A 3.319 3.319 0 0 0 70.379 6.416 L 70.379 15.491 L 89.209 15.491 L 89.209 6.416 A 2.337 2.337 0 0 0 89.112 5.715 Q 88.81 4.753 87.561 4.636 Q 86.582 4.54 86.265 4.327 A 0.474 0.474 0 0 1 86.188 4.263 A 0.882 0.882 0 0 1 85.965 3.838 A 1.309 1.309 0 0 1 85.935 3.549 A 1.724 1.724 0 0 1 85.979 3.153 A 1.337 1.337 0 0 1 86.133 2.769 A 1.144 1.144 0 0 1 86.453 2.428 Q 86.592 2.328 86.77 2.252 A 8.544 8.544 0 0 1 87.307 2.045 A 7.149 7.149 0 0 1 87.616 1.945 Q 87.967 1.84 88.589 1.793 A 11.059 11.059 0 0 1 88.792 1.78 Q 89.562 1.735 90.166 1.72 A 22.052 22.052 0 0 1 90.681 1.714 L 91.516 1.714 Q 94.68 1.714 95.581 2.044 A 5.304 5.304 0 0 1 96.255 2.331 Q 96.976 2.706 97.207 3.199 A 1.144 1.144 0 0 1 97.317 3.692 Q 97.317 4.175 96.9 4.362 A 2.559 2.559 0 0 1 96.549 4.486 Q 96.368 4.538 96.154 4.575 A 5.816 5.816 0 0 1 95.801 4.625 Q 95.12 4.702 94.878 4.812 A 1.39 1.39 0 0 0 94.09 5.797 Q 94.025 6.057 94.021 6.374 A 3.349 3.349 0 0 0 94.021 6.416 L 94.021 27.839 Q 94.021 28.425 94.211 28.805 A 1.18 1.18 0 0 0 94.537 29.213 A 2.274 2.274 0 0 0 95.468 29.644 A 2.882 2.882 0 0 0 95.79 29.696 A 20.187 20.187 0 0 1 96.087 29.729 Q 96.574 29.788 96.746 29.839 A 0.905 0.905 0 0 1 97.009 29.941 Q 97.317 30.126 97.317 30.553 A 3.341 3.341 0 0 1 97.299 30.909 Q 97.281 31.083 97.242 31.229 A 1.378 1.378 0 0 1 97.152 31.476 A 1.079 1.079 0 0 1 96.853 31.846 A 1.552 1.552 0 0 1 96.57 32.025 A 7.62 7.62 0 0 1 96.269 32.168 Q 96.119 32.235 95.982 32.287 A 4.1 4.1 0 0 1 95.823 32.344 Q 95.568 32.429 95.075 32.474 A 9.741 9.741 0 0 1 94.768 32.498 A 37.421 37.421 0 0 1 92.527 32.564 Z M 149.985 32.564 L 147.7 32.586 A 16.875 16.875 0 0 1 146.423 32.541 Q 144.51 32.395 143.825 31.769 A 1.335 1.335 0 0 1 143.701 31.641 Q 143.372 31.223 143.372 30.674 Q 143.372 30.125 143.778 29.916 A 2.342 2.342 0 0 1 144.115 29.777 Q 144.295 29.718 144.509 29.673 A 5.557 5.557 0 0 1 144.877 29.608 Q 145.569 29.509 145.833 29.4 Q 146.658 29.061 146.688 27.928 A 3.277 3.277 0 0 0 146.69 27.839 L 146.69 6.416 A 2.243 2.243 0 0 0 146.586 5.705 Q 146.351 5.002 145.587 4.753 A 2.755 2.755 0 0 0 145.02 4.636 A 14.804 14.804 0 0 1 144.606 4.595 Q 143.831 4.505 143.682 4.378 A 0.121 0.121 0 0 1 143.657 4.351 A 1.584 1.584 0 0 1 143.452 3.973 A 1.278 1.278 0 0 1 143.372 3.527 A 1.898 1.898 0 0 1 143.413 3.123 A 1.502 1.502 0 0 1 143.536 2.769 A 1.073 1.073 0 0 1 143.892 2.365 A 1.44 1.44 0 0 1 144.086 2.252 A 7.176 7.176 0 0 1 144.542 2.049 A 5.816 5.816 0 0 1 144.822 1.945 Q 145.139 1.836 145.69 1.789 A 7.94 7.94 0 0 1 145.811 1.78 A 40.362 40.362 0 0 1 146.283 1.751 Q 146.864 1.719 147.298 1.715 A 13.425 13.425 0 0 1 147.437 1.714 L 148.14 1.714 L 150.645 1.692 A 15.499 15.499 0 0 1 151.869 1.736 Q 153.73 1.885 154.371 2.528 A 1.273 1.273 0 0 1 154.468 2.637 A 1.528 1.528 0 0 1 154.797 3.597 A 1.895 1.895 0 0 1 154.797 3.615 A 1.126 1.126 0 0 1 154.764 3.901 A 0.688 0.688 0 0 1 154.369 4.373 Q 154.043 4.523 153.569 4.604 A 5.584 5.584 0 0 1 153.259 4.647 Q 152.578 4.724 152.337 4.834 Q 151.48 5.186 151.48 6.438 L 151.48 17.6 A 3010.941 3010.941 0 0 0 158.341 11.398 A 2402.428 2402.428 0 0 0 164.685 5.625 A 3.604 3.604 0 0 0 164.865 5.442 Q 165.147 5.133 165.147 4.944 Q 165.147 4.702 164.85 4.592 A 2.09 2.09 0 0 0 164.472 4.493 A 2.705 2.705 0 0 0 164.18 4.461 A 1.669 1.669 0 0 1 163.813 4.397 Q 163.308 4.244 163.244 3.752 A 1.161 1.161 0 0 1 163.235 3.604 A 3.072 3.072 0 0 1 163.261 3.184 Q 163.326 2.716 163.55 2.477 A 0.749 0.749 0 0 1 163.685 2.362 A 7.634 7.634 0 0 1 163.952 2.194 Q 164.229 2.028 164.432 1.945 A 1.572 1.572 0 0 1 164.641 1.878 Q 164.91 1.81 165.322 1.78 Q 166.096 1.72 167.364 1.715 A 60.979 60.979 0 0 1 167.64 1.714 A 108.426 108.426 0 0 1 168.329 1.716 Q 169.299 1.722 169.893 1.747 A 15.481 15.481 0 0 1 170.719 1.805 A 20.128 20.128 0 0 1 171.618 1.912 Q 172.551 2.044 172.892 2.384 A 1.251 1.251 0 0 1 173.112 2.675 A 0.994 0.994 0 0 1 173.233 3.153 A 3.291 3.291 0 0 1 173.227 3.35 Q 173.216 3.531 173.183 3.646 A 0.509 0.509 0 0 1 173.145 3.746 A 0.584 0.584 0 0 1 173.008 3.914 Q 172.946 3.968 172.865 4.012 A 1.039 1.039 0 0 1 172.848 4.021 Q 172.662 4.119 172.501 4.165 A 1.224 1.224 0 0 1 172.463 4.175 A 4.97 4.97 0 0 1 172.312 4.222 Q 172.02 4.309 171.431 4.461 L 169.277 5.098 A 8257.912 8257.912 0 0 1 166.162 7.749 Q 161.089 12.062 159.338 13.533 A 125.211 125.211 0 0 1 158.731 14.041 L 170.244 28.147 A 4.706 4.706 0 0 0 172.234 29.395 A 6.93 6.93 0 0 0 173.76 29.707 A 5.416 5.416 0 0 1 173.855 29.717 Q 173.973 29.731 174.033 29.745 A 0.452 0.452 0 0 1 174.056 29.751 A 2.278 2.278 0 0 0 174.102 29.763 Q 174.18 29.784 174.32 29.817 A 3.417 3.417 0 0 1 174.404 29.838 Q 174.517 29.868 174.568 29.892 A 0.267 0.267 0 0 1 174.573 29.894 Q 174.639 29.927 174.76 30.004 A 0.492 0.492 0 0 1 174.845 30.072 A 0.355 0.355 0 0 1 174.924 30.191 Q 175.056 30.476 175.056 30.905 A 1.051 1.051 0 0 1 174.928 31.399 Q 174.837 31.571 174.683 31.74 A 1.656 1.656 0 0 1 174.193 32.1 Q 173.936 32.228 173.606 32.3 A 8.945 8.945 0 0 1 172.576 32.485 Q 172.068 32.548 171.49 32.571 A 17.624 17.624 0 0 1 170.772 32.586 A 32.22 32.22 0 0 1 169.531 32.564 Q 166.465 32.445 166.465 31.685 A 2650.652 2650.652 0 0 1 163.024 27.108 Q 157.396 19.605 155.457 16.875 L 151.48 20.149 L 151.48 27.883 A 2.367 2.367 0 0 0 151.574 28.583 Q 151.812 29.352 152.648 29.579 A 2.732 2.732 0 0 0 153.15 29.663 Q 153.589 29.707 153.754 29.718 A 1.559 1.559 0 0 1 153.867 29.73 Q 154.004 29.75 154.193 29.795 Q 154.409 29.847 154.509 29.926 A 0.281 0.281 0 0 1 154.556 29.971 Q 154.797 30.278 154.797 30.674 Q 154.797 30.994 154.733 31.235 A 1.379 1.379 0 0 1 154.699 31.344 A 1.035 1.035 0 0 1 154.369 31.806 A 4.324 4.324 0 0 1 154.099 32.008 A 3.466 3.466 0 0 1 153.919 32.124 A 1.196 1.196 0 0 1 153.745 32.208 Q 153.559 32.282 153.292 32.333 A 329.344 329.344 0 0 0 153.004 32.387 Q 152.779 32.43 152.6 32.465 Q 152.342 32.514 151.896 32.537 A 11.705 11.705 0 0 1 151.798 32.542 Q 151.282 32.564 150.996 32.564 L 149.985 32.564 Z M 254.795 26.148 L 255.674 28.235 A 650.075 650.075 0 0 0 257.167 24.301 Q 259.708 17.536 260.304 15.355 A 8.689 8.689 0 0 0 260.442 14.788 A 0.441 0.441 0 0 0 260.282 14.456 Q 260.114 14.302 259.77 14.191 A 3.562 3.562 0 0 0 259.453 14.107 A 7.406 7.406 0 0 1 258.819 13.945 Q 257.586 13.567 257.586 12.942 A 4.153 4.153 0 0 1 257.595 12.65 Q 257.615 12.372 257.675 12.199 A 0.661 0.661 0 0 1 257.739 12.063 Q 260.025 11.514 262.815 11.514 Q 267.363 11.514 267.363 12.459 Q 267.363 13.272 266.616 13.865 A 7.175 7.175 0 0 0 265.666 14.066 Q 265.172 14.209 264.78 14.417 A 3.15 3.15 0 0 0 264.133 14.865 A 4.289 4.289 0 0 0 263.457 15.66 Q 263.058 16.257 262.749 17.073 L 261.387 20.654 A 1274.797 1274.797 0 0 1 260.458 22.988 Q 257.399 30.652 257.014 31.267 Q 256.252 32.559 255.522 32.936 A 1.289 1.289 0 0 1 254.927 33.091 A 0.854 0.854 0 0 1 254.433 32.911 Q 253.9 32.532 253.317 31.356 A 12.408 12.408 0 0 1 253.169 31.048 A 24.634 24.634 0 0 1 253.109 30.926 Q 252.989 30.684 252.971 30.63 L 247.94 19.534 A 954.361 954.361 0 0 1 246.304 23.169 Q 244.721 26.667 243.564 29.131 A 206.263 206.263 0 0 1 242.6 31.157 A 6.731 6.731 0 0 1 242.367 31.668 Q 242.114 32.159 241.849 32.422 A 1.275 1.275 0 0 1 241.633 32.597 A 2.107 2.107 0 0 1 241.079 32.847 A 1.802 1.802 0 0 1 240.59 32.915 A 2.778 2.778 0 0 1 240.372 32.907 Q 240.015 32.879 239.887 32.75 A 1.454 1.454 0 0 1 239.775 32.623 Q 239.657 32.474 239.524 32.245 A 35.4 35.4 0 0 1 239.385 32.003 Q 239.277 31.814 239.194 31.663 A 8.889 8.889 0 0 1 239.123 31.529 Q 239.044 31.377 238.941 31.17 A 34.057 34.057 0 0 1 238.843 30.971 A 36.435 36.435 0 0 0 238.766 30.814 Q 238.611 30.5 238.557 30.41 L 233.328 18.281 A 71.371 71.371 0 0 0 232.838 17.09 Q 231.84 14.729 231.394 14.282 L 231.394 14.304 Q 231.088 14.168 230.479 14.052 A 12.321 12.321 0 0 0 230.098 13.986 A 6.411 6.411 0 0 1 229.59 13.885 Q 229.093 13.765 228.78 13.584 A 1.737 1.737 0 0 1 228.735 13.557 A 0.929 0.929 0 0 1 228.315 12.96 Q 228.274 12.793 228.274 12.59 A 0.557 0.557 0 0 1 228.627 12.132 Q 229.59 11.594 233.175 11.524 A 57.905 57.905 0 0 1 234.295 11.514 A 25.218 25.218 0 0 1 235.88 11.561 Q 236.971 11.63 237.865 11.799 A 8.859 8.859 0 0 1 238.338 11.902 Q 239.035 12.074 239.261 12.288 A 0.297 0.297 0 0 1 239.37 12.503 A 2.982 2.982 0 0 1 239.354 12.825 Q 239.319 13.148 239.206 13.335 A 0.57 0.57 0 0 1 239.096 13.469 Q 238.871 13.667 238.345 13.835 A 5.994 5.994 0 0 1 238.096 13.909 A 3.518 3.518 0 0 0 237.623 14.066 Q 237.103 14.286 236.93 14.621 A 0.781 0.781 0 0 0 236.843 14.985 A 2.983 2.983 0 0 0 236.917 15.55 Q 237.213 16.99 238.699 20.89 A 159.478 159.478 0 0 0 238.942 21.522 A 457.546 457.546 0 0 0 239.676 23.413 Q 241.151 27.187 241.633 28.169 A 116.921 116.921 0 0 0 242.965 25.231 Q 244.415 21.919 246.21 17.393 A 382.331 382.331 0 0 0 246.467 16.743 A 16.338 16.338 0 0 0 246.158 16.02 Q 245.665 14.948 245.25 14.569 A 1.207 1.207 0 0 0 245.171 14.502 L 244.27 13.777 A 6.711 6.711 0 0 1 244.024 13.582 Q 243.671 13.287 243.578 13.103 A 0.266 0.266 0 0 1 243.545 12.986 Q 243.545 12.037 246.536 11.876 A 25.237 25.237 0 0 1 247.885 11.843 A 34.391 34.391 0 0 1 249.135 11.864 Q 252.224 11.977 252.224 12.7 Q 252.224 13.491 251.224 13.568 Q 250.539 13.621 250.324 13.916 A 0.532 0.532 0 0 0 250.225 14.238 A 3.626 3.626 0 0 0 250.26 14.755 Q 250.301 15.039 250.39 15.282 Q 250.554 15.733 250.73 16.161 Q 250.905 16.589 251.234 17.465 A 91.471 91.471 0 0 1 251.235 17.468 A 48.032 48.032 0 0 0 251.676 18.635 Q 252.632 21.084 254.795 26.148 Z M 378.391 32.564 L 376.502 32.586 A 14.591 14.591 0 0 1 375.366 32.545 Q 373.641 32.41 373.045 31.822 A 1.162 1.162 0 0 1 372.942 31.707 A 1.455 1.455 0 0 1 372.645 30.955 A 1.886 1.886 0 0 1 372.634 30.751 A 1.106 1.106 0 0 1 372.673 30.448 A 0.741 0.741 0 0 1 373.074 29.971 Q 373.513 29.751 374.052 29.729 Q 374.59 29.707 375.029 29.389 Q 375.447 29.086 375.468 28.437 A 2.159 2.159 0 0 0 375.469 28.367 L 375.491 21.973 Q 375.491 18.5 374.778 16.6 A 5.823 5.823 0 0 0 374.524 16.018 A 3.553 3.553 0 0 0 372.352 14.18 Q 371.408 13.865 370.129 13.865 A 8.681 8.681 0 0 0 368.319 14.04 Q 367.252 14.268 366.467 14.792 A 4.299 4.299 0 0 0 365.208 16.084 Q 363.933 18.15 363.933 22.083 L 363.933 28.367 A 1.65 1.65 0 0 0 364.019 28.922 Q 364.277 29.646 365.309 29.716 A 3.101 3.101 0 0 0 365.35 29.718 A 2.841 2.841 0 0 1 365.868 29.79 Q 366.738 30.002 366.767 30.795 A 1.514 1.514 0 0 1 366.768 30.85 A 1.611 1.611 0 0 1 366.65 31.486 Q 366.466 31.916 366 32.15 A 2.375 2.375 0 0 1 365.427 32.344 A 6.94 6.94 0 0 1 364.753 32.459 Q 364.03 32.549 363.019 32.562 A 26.952 26.952 0 0 1 362.681 32.564 L 360.791 32.586 A 14.591 14.591 0 0 1 359.656 32.545 Q 357.93 32.41 357.335 31.822 A 1.162 1.162 0 0 1 357.232 31.707 A 1.455 1.455 0 0 1 356.935 30.955 A 1.886 1.886 0 0 1 356.924 30.751 A 1.106 1.106 0 0 1 356.963 30.448 A 0.741 0.741 0 0 1 357.363 29.971 Q 357.803 29.751 358.341 29.729 Q 358.879 29.707 359.319 29.389 Q 359.736 29.086 359.757 28.437 A 2.159 2.159 0 0 0 359.758 28.367 L 359.758 4.439 A 1.493 1.493 0 0 0 359.596 3.726 Q 359.285 3.143 358.379 2.94 A 3.753 3.753 0 0 0 358.176 2.901 Q 357.078 2.725 356.847 2.516 A 0.616 0.616 0 0 1 356.689 2.281 Q 356.649 2.18 356.631 2.052 A 1.627 1.627 0 0 1 356.616 1.824 A 1.011 1.011 0 0 1 356.815 1.227 Q 356.913 1.09 357.058 0.962 A 1.985 1.985 0 0 1 357.078 0.945 Q 357.511 0.573 358.197 0.376 A 4.402 4.402 0 0 1 358.286 0.352 A 10.186 10.186 0 0 1 359.867 0.067 A 13.301 13.301 0 0 1 361.231 0 A 6.736 6.736 0 0 1 362.157 0.058 Q 363.955 0.309 363.955 1.648 L 363.955 14.414 A 9.588 9.588 0 0 1 370.931 11.044 A 11.949 11.949 0 0 1 371.514 11.03 A 13.979 13.979 0 0 1 373.746 11.196 Q 376.56 11.652 377.875 13.371 Q 379.666 15.711 379.666 20.457 L 379.644 28.367 A 1.65 1.65 0 0 0 379.729 28.922 Q 379.987 29.646 381.019 29.716 A 3.101 3.101 0 0 0 381.061 29.718 A 2.841 2.841 0 0 1 381.578 29.79 Q 382.449 30.002 382.477 30.795 A 1.514 1.514 0 0 1 382.478 30.85 A 1.641 1.641 0 0 1 382.365 31.479 Q 382.181 31.924 381.701 32.162 A 2.339 2.339 0 0 1 381.16 32.344 A 7.711 7.711 0 0 1 380.455 32.46 Q 379.6 32.564 378.391 32.564 Z M 12.041 28.784 L 12.041 4.461 L 5.603 4.483 A 1.117 1.117 0 0 0 4.885 4.771 Q 4.249 5.298 3.686 6.788 A 12.857 12.857 0 0 0 3.637 6.922 Q 2.853 9.07 1.958 9.326 A 0.883 0.883 0 0 1 1.714 9.36 A 2.062 2.062 0 0 1 0.984 9.242 Q 0.079 8.901 0.006 7.578 A 4.351 4.351 0 0 1 0 7.339 A 13.369 13.369 0 0 1 0.076 5.867 Q 0.255 4.251 0.861 3.257 A 3.824 3.824 0 0 1 0.956 3.109 Q 1.742 1.943 3.577 1.737 A 7.508 7.508 0 0 1 4.417 1.692 L 17.205 1.692 A 1767.582 1767.582 0 0 1 19.631 1.694 Q 24.487 1.7 25.862 1.736 A 2.398 2.398 0 0 1 27.847 2.958 Q 28.432 3.884 28.689 5.509 A 12.596 12.596 0 0 1 28.696 5.559 Q 28.85 6.482 28.85 7.471 A 3.036 3.036 0 0 1 28.774 8.184 Q 28.542 9.139 27.607 9.319 A 2.498 2.498 0 0 1 27.136 9.36 Q 26.016 9.36 25.269 6.922 A 6.06 6.06 0 0 0 24.456 5.241 Q 24.118 4.755 23.717 4.58 A 1.165 1.165 0 0 0 23.247 4.483 L 16.809 4.461 L 16.809 28.784 Q 16.809 29.353 18.305 29.668 A 9.881 9.881 0 0 0 18.688 29.74 Q 20.567 30.059 20.567 30.586 A 2.404 2.404 0 0 1 20.541 30.95 Q 20.467 31.429 20.182 31.641 A 11.17 11.17 0 0 1 19.932 31.822 Q 19.819 31.9 19.72 31.965 A 4.575 4.575 0 0 1 19.534 32.08 A 1.423 1.423 0 0 1 19.326 32.178 Q 19.1 32.264 18.776 32.322 A 57.129 57.129 0 0 1 18.425 32.383 Q 18.287 32.407 18.163 32.427 A 28.992 28.992 0 0 1 17.93 32.465 A 4.618 4.618 0 0 1 17.689 32.495 Q 17.384 32.526 16.941 32.542 Q 16.304 32.564 15.952 32.564 L 13.667 32.564 A 21.84 21.84 0 0 1 11.996 32.505 Q 8.35 32.224 8.35 30.586 A 0.56 0.56 0 0 1 8.618 30.106 Q 8.847 29.948 9.273 29.872 Q 10.195 29.707 11.118 29.531 A 2.384 2.384 0 0 0 11.455 29.444 Q 11.854 29.305 11.981 29.05 A 0.585 0.585 0 0 0 12.041 28.784 Z M 183.296 32.564 L 181.406 32.586 A 14.591 14.591 0 0 1 180.271 32.545 Q 178.545 32.41 177.95 31.822 A 1.162 1.162 0 0 1 177.847 31.707 A 1.455 1.455 0 0 1 177.55 30.955 A 1.886 1.886 0 0 1 177.539 30.751 A 1.106 1.106 0 0 1 177.578 30.448 A 0.741 0.741 0 0 1 177.979 29.971 Q 178.418 29.751 178.956 29.729 Q 179.495 29.707 179.934 29.389 Q 180.351 29.086 180.373 28.437 A 2.159 2.159 0 0 0 180.374 28.367 L 180.374 15.82 A 1.493 1.493 0 0 0 180.211 15.108 Q 179.9 14.525 178.994 14.322 A 3.753 3.753 0 0 0 178.792 14.282 Q 177.693 14.107 177.462 13.898 Q 177.246 13.702 177.232 13.216 A 2.374 2.374 0 0 1 177.232 13.151 Q 177.232 12.612 178.001 12.173 A 5.121 5.121 0 0 1 179.516 11.568 Q 180.311 11.382 181.264 11.382 A 10.815 10.815 0 0 1 182.057 11.409 Q 183.26 11.498 183.723 11.881 A 0.965 0.965 0 0 1 183.79 11.942 A 1.326 1.326 0 0 1 184.061 12.366 Q 184.351 13.046 184.351 14.436 A 9.877 9.877 0 0 1 190.436 11.193 A 14.268 14.268 0 0 1 192.634 11.03 Q 195.233 11.03 196.914 11.891 A 5.217 5.217 0 0 1 198.71 13.371 Q 200.501 15.711 200.501 20.457 L 200.501 28.367 A 1.65 1.65 0 0 0 200.586 28.922 Q 200.844 29.646 201.876 29.716 A 3.101 3.101 0 0 0 201.918 29.718 A 2.841 2.841 0 0 1 202.435 29.79 Q 203.306 30.002 203.334 30.795 A 1.514 1.514 0 0 1 203.335 30.85 A 1.529 1.529 0 0 1 203.199 31.513 Q 202.913 32.115 202.029 32.331 A 3.287 3.287 0 0 1 201.973 32.344 Q 200.962 32.564 199.182 32.564 L 197.293 32.586 A 14.591 14.591 0 0 1 196.157 32.545 Q 194.432 32.41 193.836 31.822 A 1.162 1.162 0 0 1 193.733 31.707 A 1.455 1.455 0 0 1 193.436 30.955 A 1.886 1.886 0 0 1 193.425 30.751 A 1.106 1.106 0 0 1 193.464 30.448 A 0.741 0.741 0 0 1 193.865 29.971 Q 194.304 29.751 194.843 29.729 Q 195.381 29.707 195.82 29.389 Q 196.238 29.086 196.259 28.437 A 2.159 2.159 0 0 0 196.26 28.367 L 196.26 21.973 A 28.135 28.135 0 0 0 196.189 19.902 Q 196.002 17.369 195.315 15.996 Q 194.26 13.865 191.074 13.865 Q 187.229 13.865 185.845 15.908 A 6.071 6.071 0 0 0 185.134 17.426 Q 184.548 19.233 184.548 22.083 L 184.548 28.367 A 1.65 1.65 0 0 0 184.634 28.922 Q 184.892 29.646 185.924 29.716 A 3.101 3.101 0 0 0 185.966 29.718 A 2.841 2.841 0 0 1 186.483 29.79 Q 187.353 30.002 187.382 30.795 A 1.514 1.514 0 0 1 187.383 30.85 A 1.611 1.611 0 0 1 187.265 31.486 Q 187.082 31.916 186.615 32.15 A 2.375 2.375 0 0 1 186.043 32.344 A 6.94 6.94 0 0 1 185.368 32.459 Q 184.645 32.549 183.634 32.562 A 26.952 26.952 0 0 1 183.296 32.564 Z M 405.923 32.564 L 404.033 32.586 A 14.591 14.591 0 0 1 402.898 32.545 Q 401.172 32.41 400.577 31.822 A 1.162 1.162 0 0 1 400.474 31.707 A 1.455 1.455 0 0 1 400.177 30.955 A 1.886 1.886 0 0 1 400.166 30.751 A 1.106 1.106 0 0 1 400.205 30.448 A 0.741 0.741 0 0 1 400.606 29.971 Q 401.045 29.751 401.583 29.729 Q 402.122 29.707 402.561 29.389 Q 402.978 29.086 402.999 28.437 A 2.159 2.159 0 0 0 403.001 28.367 L 403.001 15.82 A 1.493 1.493 0 0 0 402.838 15.108 Q 402.527 14.525 401.621 14.322 A 3.753 3.753 0 0 0 401.419 14.282 Q 400.32 14.107 400.089 13.898 Q 399.873 13.702 399.859 13.216 A 2.374 2.374 0 0 1 399.858 13.151 Q 399.858 12.612 400.628 12.173 A 5.121 5.121 0 0 1 402.143 11.568 Q 402.938 11.382 403.89 11.382 A 10.815 10.815 0 0 1 404.684 11.409 Q 405.887 11.498 406.35 11.881 A 0.965 0.965 0 0 1 406.417 11.942 A 1.326 1.326 0 0 1 406.688 12.366 Q 406.978 13.046 406.978 14.436 A 9.877 9.877 0 0 1 413.062 11.193 A 14.268 14.268 0 0 1 415.261 11.03 Q 417.86 11.03 419.541 11.891 A 5.217 5.217 0 0 1 421.337 13.371 Q 423.128 15.711 423.128 20.457 L 423.128 28.367 A 1.65 1.65 0 0 0 423.213 28.922 Q 423.471 29.646 424.503 29.716 A 3.101 3.101 0 0 0 424.545 29.718 A 2.841 2.841 0 0 1 425.062 29.79 Q 425.933 30.002 425.961 30.795 A 1.514 1.514 0 0 1 425.962 30.85 A 1.529 1.529 0 0 1 425.826 31.513 Q 425.54 32.115 424.656 32.331 A 3.287 3.287 0 0 1 424.6 32.344 Q 423.589 32.564 421.809 32.564 L 419.92 32.586 A 14.591 14.591 0 0 1 418.784 32.545 Q 417.059 32.41 416.463 31.822 A 1.162 1.162 0 0 1 416.36 31.707 A 1.455 1.455 0 0 1 416.063 30.955 A 1.886 1.886 0 0 1 416.052 30.751 A 1.106 1.106 0 0 1 416.091 30.448 A 0.741 0.741 0 0 1 416.492 29.971 Q 416.931 29.751 417.47 29.729 Q 418.008 29.707 418.447 29.389 Q 418.865 29.086 418.886 28.437 A 2.159 2.159 0 0 0 418.887 28.367 L 418.887 21.973 A 28.135 28.135 0 0 0 418.816 19.902 Q 418.628 17.369 417.942 15.996 Q 416.887 13.865 413.701 13.865 Q 409.856 13.865 408.472 15.908 A 6.071 6.071 0 0 0 407.761 17.426 Q 407.175 19.233 407.175 22.083 L 407.175 28.367 A 1.65 1.65 0 0 0 407.261 28.922 Q 407.519 29.646 408.551 29.716 A 3.101 3.101 0 0 0 408.593 29.718 A 2.841 2.841 0 0 1 409.11 29.79 Q 409.98 30.002 410.009 30.795 A 1.514 1.514 0 0 1 410.01 30.85 A 1.611 1.611 0 0 1 409.892 31.486 Q 409.709 31.916 409.242 32.15 A 2.375 2.375 0 0 1 408.67 32.344 A 6.94 6.94 0 0 1 407.995 32.459 Q 407.272 32.549 406.261 32.562 A 26.952 26.952 0 0 1 405.923 32.564 Z M 435.059 24.917 L 435.059 24.895 A 9.199 9.199 0 0 0 434.368 25.535 Q 433.711 26.215 433.495 26.802 A 1.601 1.601 0 0 0 433.389 27.356 Q 433.389 28.323 434.334 28.652 A 7.014 7.014 0 0 0 435.327 28.922 Q 436.46 29.15 438.069 29.18 Q 439.903 29.213 441.118 29.241 A 312.907 312.907 0 0 1 441.804 29.257 Q 443.145 29.29 444.705 29.4 A 17.91 17.91 0 0 1 445.998 29.536 Q 446.661 29.631 447.24 29.774 A 10.452 10.452 0 0 1 447.451 29.828 A 11.377 11.377 0 0 1 449.541 30.609 A 10.545 10.545 0 0 1 449.671 30.674 Q 451.508 31.631 451.745 33.755 A 5.904 5.904 0 0 1 451.78 34.409 A 6.428 6.428 0 0 1 451.435 36.542 A 5.809 5.809 0 0 1 450.747 37.903 A 7.196 7.196 0 0 1 448.113 40.228 A 8.458 8.458 0 0 1 447.979 40.298 A 15.488 15.488 0 0 1 443.681 41.737 A 21.455 21.455 0 0 1 439.761 42.078 Q 435.63 42.078 432.488 40.935 A 6.94 6.94 0 0 1 431.014 40.203 A 5.492 5.492 0 0 1 429.807 39.122 Q 428.818 37.925 428.818 36.255 A 4.935 4.935 0 0 1 430.698 32.283 A 7.657 7.657 0 0 1 431.961 31.443 Q 431.37 30.868 431.048 30.336 A 3.118 3.118 0 0 1 430.829 29.905 Q 430.537 29.19 430.532 28.241 A 6.273 6.273 0 0 1 430.532 28.213 A 8.626 8.626 0 0 1 430.548 27.678 Q 430.581 27.153 430.682 26.801 A 2.176 2.176 0 0 1 430.708 26.719 A 2.897 2.897 0 0 1 431.257 25.752 Q 431.622 25.321 432.461 24.653 A 26.256 26.256 0 0 1 433.059 24.192 A 13.342 13.342 0 0 1 431.648 23.382 Q 430.951 22.92 430.419 22.415 A 6.808 6.808 0 0 1 429.906 21.874 A 4.536 4.536 0 0 1 428.897 19.633 A 6.225 6.225 0 0 1 428.818 18.622 A 7.139 7.139 0 0 1 429.032 16.838 A 5.728 5.728 0 0 1 429.73 15.205 Q 430.642 13.755 432.136 12.898 A 13.256 13.256 0 0 1 438.382 11.171 A 15.767 15.767 0 0 1 438.904 11.162 Q 439.959 11.162 442.848 11.701 A 226.165 226.165 0 0 0 443.531 11.827 Q 445.673 12.219 446.055 12.238 A 0.7 0.7 0 0 0 446.089 12.239 A 2.882 2.882 0 0 0 446.989 12.109 Q 447.889 11.814 448.231 10.848 A 3.365 3.365 0 0 0 448.374 10.283 A 5.18 5.18 0 0 1 449.401 10.376 Q 450.993 10.699 451.166 12.153 A 3.144 3.144 0 0 1 451.187 12.525 Q 451.187 13.601 450.538 14.227 A 2.275 2.275 0 0 1 449.866 14.687 A 2.037 2.037 0 0 1 449.044 14.854 A 18.586 18.586 0 0 1 447.94 14.819 A 22.831 22.831 0 0 1 447.232 14.766 A 3.104 3.104 0 0 1 447.706 15.289 Q 447.904 15.559 448.083 15.902 A 7.144 7.144 0 0 1 448.352 16.48 A 6.245 6.245 0 0 1 448.836 18.897 A 4.771 4.771 0 0 1 447.503 22.221 A 6.302 6.302 0 0 1 447.319 22.412 Q 444.588 25.144 439.713 25.36 A 19.269 19.269 0 0 1 438.86 25.379 A 12.499 12.499 0 0 1 437.463 25.297 A 15.22 15.22 0 0 1 436.575 25.17 Q 435.444 24.974 435.102 24.923 A 7.091 7.091 0 0 0 435.059 24.917 Z M 35.662 1.714 L 44.165 1.714 A 34.423 34.423 0 0 1 48.675 1.983 Q 53.556 2.632 55.718 4.847 A 6.193 6.193 0 0 1 57.437 9.36 A 6.648 6.648 0 0 1 57.183 11.243 A 5.067 5.067 0 0 1 55.635 13.667 A 11.145 11.145 0 0 1 54.107 14.803 Q 53.327 15.291 52.389 15.73 A 20.543 20.543 0 0 1 51.746 16.018 Q 55.672 17.258 57.655 19.284 A 6.829 6.829 0 0 1 59.678 24.236 Q 59.678 26.587 58.524 28.268 A 7.131 7.131 0 0 1 56.048 30.484 A 8.837 8.837 0 0 1 55.305 30.85 Q 52.276 32.209 47.954 32.504 A 36.666 36.666 0 0 1 45.462 32.586 L 35.662 32.564 A 96.68 96.68 0 0 1 34.602 32.558 Q 32.997 32.541 32.216 32.465 A 5.11 5.11 0 0 1 31.795 32.41 A 3.756 3.756 0 0 1 31.052 32.133 Q 30.043 31.618 29.993 30.586 A 0.709 0.709 0 0 1 30.327 29.987 Q 30.699 29.724 31.487 29.619 Q 32.151 29.516 32.403 29.412 A 0.84 0.84 0 0 0 32.432 29.4 Q 33.257 29.061 33.287 27.928 A 3.277 3.277 0 0 0 33.289 27.839 L 33.289 6.416 Q 33.289 5.131 32.201 4.745 A 2.769 2.769 0 0 0 31.641 4.614 A 37.081 37.081 0 0 0 31.344 4.573 A 29.33 29.33 0 0 0 31.069 4.537 A 11.419 11.419 0 0 1 30.943 4.521 Q 30.765 4.497 30.634 4.472 A 4 4 0 0 1 30.63 4.472 Q 30.5 4.447 30.43 4.417 A 0.268 0.268 0 0 1 30.388 4.395 Q 30.322 4.351 30.223 4.274 A 0.452 0.452 0 0 1 30.152 4.205 A 0.333 0.333 0 0 1 30.092 4.098 A 1.942 1.942 0 0 1 30.067 4.018 Q 30.054 3.973 30.041 3.921 A 3.916 3.916 0 0 1 30.026 3.856 Q 29.995 3.724 29.993 3.357 A 9.808 9.808 0 0 1 29.993 3.296 Q 29.993 2.879 30.333 2.472 A 1.239 1.239 0 0 1 30.67 2.198 Q 30.981 2.019 31.466 1.924 A 4.324 4.324 0 0 1 31.531 1.912 Q 32.548 1.729 35.223 1.715 A 86.539 86.539 0 0 1 35.662 1.714 Z M 123.003 27.839 L 123.003 6.416 Q 123.003 5.131 121.915 4.745 A 2.769 2.769 0 0 0 121.355 4.614 A 37.081 37.081 0 0 0 121.058 4.573 A 29.33 29.33 0 0 0 120.784 4.537 A 11.419 11.419 0 0 1 120.657 4.521 Q 120.479 4.497 120.349 4.472 A 4 4 0 0 1 120.344 4.472 Q 120.214 4.447 120.144 4.417 A 0.268 0.268 0 0 1 120.103 4.395 Q 120.037 4.351 119.938 4.274 Q 119.839 4.197 119.795 4.087 Q 119.707 3.801 119.707 3.505 A 1.583 1.583 0 0 1 119.806 2.946 A 1.615 1.615 0 0 1 119.806 2.944 A 0.999 0.999 0 0 1 120.034 2.593 A 1.276 1.276 0 0 1 120.158 2.483 A 4.678 4.678 0 0 1 120.405 2.302 A 3.524 3.524 0 0 1 120.641 2.153 Q 120.872 2.022 121.344 1.945 A 133.575 133.575 0 0 0 121.571 1.908 Q 121.891 1.855 122.128 1.814 A 51.091 51.091 0 0 0 122.135 1.813 A 3.312 3.312 0 0 1 122.316 1.787 Q 122.523 1.763 122.821 1.748 A 16.267 16.267 0 0 1 123.113 1.736 Q 123.618 1.719 123.955 1.715 A 16.406 16.406 0 0 1 124.146 1.714 L 125.552 1.714 A 78.348 78.348 0 0 1 125.888 1.715 Q 126.368 1.717 126.705 1.725 Q 127.156 1.736 127.793 1.78 A 18.209 18.209 0 0 1 128.223 1.814 Q 128.401 1.831 128.558 1.85 A 8.056 8.056 0 0 1 128.848 1.89 A 5.233 5.233 0 0 1 129.335 1.992 A 6.674 6.674 0 0 1 129.738 2.11 A 3.811 3.811 0 0 1 130.038 2.22 Q 130.301 2.331 130.474 2.461 A 1.921 1.921 0 0 1 130.808 2.764 Q 131.111 3.117 131.111 3.549 Q 131.111 3.907 130.971 4.122 A 0.642 0.642 0 0 1 130.682 4.362 A 2.716 2.716 0 0 1 130.326 4.486 Q 130.142 4.538 129.926 4.575 A 5.908 5.908 0 0 1 129.573 4.625 Q 128.892 4.702 128.65 4.812 A 1.39 1.39 0 0 0 127.862 5.797 Q 127.797 6.057 127.793 6.374 A 3.349 3.349 0 0 0 127.793 6.416 L 127.793 27.839 Q 127.793 28.425 127.983 28.805 A 1.18 1.18 0 0 0 128.309 29.213 A 2.274 2.274 0 0 0 129.24 29.644 A 2.882 2.882 0 0 0 129.562 29.696 A 20.187 20.187 0 0 1 129.859 29.729 Q 130.346 29.788 130.518 29.839 A 0.969 0.969 0 0 1 130.784 29.937 Q 131.068 30.097 131.105 30.443 A 1.022 1.022 0 0 1 131.111 30.553 A 2.79 2.79 0 0 1 131.092 30.892 Q 131.049 31.238 130.913 31.465 A 1.16 1.16 0 0 1 130.639 31.773 Q 130.513 31.874 130.349 31.958 A 2.209 2.209 0 0 1 130.254 32.003 Q 129.793 32.212 129.375 32.333 A 2.979 2.979 0 0 1 129.086 32.399 Q 128.789 32.454 128.375 32.484 A 11.689 11.689 0 0 1 128.167 32.498 A 30.032 30.032 0 0 1 127.494 32.527 Q 126.392 32.563 124.608 32.564 A 181.685 181.685 0 0 1 124.519 32.564 A 17.895 17.895 0 0 1 123.007 32.505 Q 120.529 32.294 119.912 31.317 A 1.34 1.34 0 0 1 119.707 30.586 A 0.709 0.709 0 0 1 120.041 29.987 Q 120.413 29.724 121.201 29.619 Q 121.865 29.516 122.118 29.412 A 0.84 0.84 0 0 0 122.146 29.4 Q 122.971 29.061 123.002 27.928 A 3.277 3.277 0 0 0 123.003 27.839 Z M 341.939 26.653 L 341.939 14.37 L 340.598 14.392 Q 339.956 14.392 339.588 14.296 A 1.377 1.377 0 0 1 339.412 14.238 Q 339.045 14.087 339.038 13.608 A 1.285 1.285 0 0 1 339.038 13.59 A 1.123 1.123 0 0 1 339.26 12.925 A 1.64 1.64 0 0 1 339.467 12.689 A 3.058 3.058 0 0 1 340.444 12.063 A 15.133 15.133 0 0 0 340.97 11.839 Q 341.804 11.463 342.126 11.166 A 0.903 0.903 0 0 0 342.257 11.019 Q 342.554 10.591 343.147 9.141 Q 344.619 5.515 345.608 5.515 Q 346.113 5.515 346.19 6.603 A 67.345 67.345 0 0 1 346.225 7.114 Q 346.256 7.609 346.269 7.966 A 15.755 15.755 0 0 1 346.278 8.262 A 18.804 18.804 0 0 1 346.281 8.464 Q 346.285 8.972 346.27 9.808 A 110.23 110.23 0 0 1 346.267 9.965 A 238.003 238.003 0 0 0 346.258 10.472 Q 346.248 11.032 346.246 11.358 A 25.934 25.934 0 0 0 346.245 11.536 L 351.475 11.558 A 2.551 2.551 0 0 1 352.091 11.629 A 1.932 1.932 0 0 1 352.771 11.942 A 1.324 1.324 0 0 1 353.121 12.31 Q 353.293 12.585 353.298 12.941 A 1.524 1.524 0 0 1 353.298 12.964 A 1.251 1.251 0 0 1 353.214 13.433 Q 353.097 13.724 352.82 13.926 A 1.447 1.447 0 0 1 352.782 13.953 A 1.969 1.969 0 0 1 352.069 14.249 A 2.79 2.79 0 0 1 351.497 14.304 L 346.245 14.304 L 346.223 25.532 A 14.254 14.254 0 0 0 346.304 27.122 Q 346.485 28.721 347.069 29.516 A 1.827 1.827 0 0 0 348.618 30.3 A 3.152 3.152 0 0 0 349.039 30.268 Q 349.489 30.207 350.122 30.029 A 16.094 16.094 0 0 0 350.574 29.894 A 25.25 25.25 0 0 1 351.028 29.756 Q 351.944 29.487 352.266 29.487 Q 353.167 29.487 353.167 30.52 A 0.796 0.796 0 0 1 352.97 31.016 Q 352.521 31.581 351.046 32.146 A 12.056 12.056 0 0 1 346.696 32.959 Q 344.465 32.959 343.202 31.223 Q 342.07 29.668 341.952 27.232 A 11.974 11.974 0 0 1 341.939 26.653 Z M 212.78 32.635 A 12.808 12.808 0 0 0 216.365 33.113 Q 219.771 33.113 222.517 31.74 Q 225.264 30.366 226.879 27.807 A 10.177 10.177 0 0 0 227.954 25.516 A 11.458 11.458 0 0 0 228.494 21.951 A 13.644 13.644 0 0 0 228.456 20.929 A 10.064 10.064 0 0 0 225.352 14.173 A 10.433 10.433 0 0 0 221.249 11.728 A 12.712 12.712 0 0 0 217.376 11.162 A 16.103 16.103 0 0 0 216.036 11.217 A 13.319 13.319 0 0 0 211.278 12.492 A 10.489 10.489 0 0 0 206.939 16.326 A 9.916 9.916 0 0 0 205.923 18.412 A 10.931 10.931 0 0 0 205.335 22.039 A 14.279 14.279 0 0 0 205.388 23.287 A 10.658 10.658 0 0 0 208.367 29.982 A 9.875 9.875 0 0 0 212.78 32.635 Z M 322.424 32.635 A 12.808 12.808 0 0 0 326.008 33.113 Q 329.414 33.113 332.161 31.74 Q 334.907 30.366 336.522 27.807 A 10.177 10.177 0 0 0 337.598 25.516 A 11.458 11.458 0 0 0 338.137 21.951 A 13.644 13.644 0 0 0 338.1 20.929 A 10.064 10.064 0 0 0 334.995 14.173 A 10.433 10.433 0 0 0 330.893 11.728 A 12.712 12.712 0 0 0 327.019 11.162 A 16.103 16.103 0 0 0 325.679 11.217 A 13.319 13.319 0 0 0 320.922 12.492 A 10.489 10.489 0 0 0 316.582 16.326 A 9.916 9.916 0 0 0 315.566 18.412 A 10.931 10.931 0 0 0 314.978 22.039 A 14.279 14.279 0 0 0 315.032 23.287 A 10.658 10.658 0 0 0 318.01 29.982 A 9.875 9.875 0 0 0 322.424 32.635 Z M 392.19 32.564 L 390.3 32.586 A 14.591 14.591 0 0 1 389.165 32.545 Q 387.44 32.41 386.844 31.822 A 1.162 1.162 0 0 1 386.741 31.707 A 1.455 1.455 0 0 1 386.444 30.955 A 1.886 1.886 0 0 1 386.433 30.751 A 1.106 1.106 0 0 1 386.472 30.448 A 0.741 0.741 0 0 1 386.873 29.971 Q 387.312 29.751 387.85 29.729 Q 388.389 29.707 388.828 29.389 Q 389.245 29.086 389.267 28.437 A 2.159 2.159 0 0 0 389.268 28.367 L 389.268 16.546 A 3.796 3.796 0 0 0 389.196 15.772 Q 388.952 14.604 387.88 14.416 A 2.295 2.295 0 0 0 387.708 14.392 Q 387.57 14.373 387.362 14.353 A 13.975 13.975 0 0 0 387.312 14.348 A 95.938 95.938 0 0 1 387.199 14.338 Q 387.051 14.324 386.969 14.316 A 11.413 11.413 0 0 1 386.961 14.315 Q 386.851 14.304 386.686 14.271 A 1.62 1.62 0 0 1 386.6 14.252 Q 386.499 14.226 386.444 14.194 A 1.364 1.364 0 0 1 386.365 14.145 Q 386.324 14.118 386.281 14.086 A 2.042 2.042 0 0 1 386.279 14.085 A 0.246 0.246 0 0 1 386.205 13.991 Q 386.133 13.845 386.126 13.528 A 3.19 3.19 0 0 1 386.126 13.458 A 0.941 0.941 0 0 1 386.239 13.025 Q 386.399 12.715 386.785 12.393 Q 387.933 11.466 389.782 11.389 A 8.203 8.203 0 0 1 390.125 11.382 A 38.135 38.135 0 0 1 390.794 11.387 Q 392.122 11.411 392.399 11.536 A 3.942 3.942 0 0 1 392.696 11.685 Q 392.853 11.772 392.981 11.865 A 0.92 0.92 0 0 1 393.32 12.292 Q 393.389 12.459 393.419 12.671 A 2.557 2.557 0 0 1 393.442 13.03 L 393.442 28.367 A 1.65 1.65 0 0 0 393.528 28.922 Q 393.786 29.646 394.818 29.716 A 3.101 3.101 0 0 0 394.86 29.718 A 2.841 2.841 0 0 1 395.377 29.79 Q 396.247 30.002 396.276 30.795 A 1.514 1.514 0 0 1 396.277 30.85 A 1.641 1.641 0 0 1 396.164 31.479 Q 395.98 31.924 395.499 32.162 A 2.339 2.339 0 0 1 394.959 32.344 A 7.711 7.711 0 0 1 394.254 32.46 Q 393.399 32.564 392.19 32.564 Z M 43.067 17.688 L 38.101 17.688 L 38.101 26.192 A 10.173 10.173 0 0 0 38.147 27.197 Q 38.248 28.212 38.572 28.828 A 2.111 2.111 0 0 0 38.837 29.224 Q 39.573 30.081 41.572 30.081 L 45.22 30.081 A 27.956 27.956 0 0 0 47.846 29.967 Q 50.418 29.723 51.986 28.958 A 5.365 5.365 0 0 0 53.086 28.257 A 4.684 4.684 0 0 0 54.667 25.575 A 7.199 7.199 0 0 0 54.822 24.038 A 7.579 7.579 0 0 0 54.731 22.834 A 5.525 5.525 0 0 0 54.393 21.61 A 4.24 4.24 0 0 0 53.119 19.885 Q 52.273 19.204 51.262 18.754 A 7.653 7.653 0 0 0 50.298 18.404 Q 49.795 18.256 49.217 18.15 A 13.555 13.555 0 0 0 48.823 18.084 A 32.667 32.667 0 0 0 46.099 17.787 A 44.306 44.306 0 0 0 43.067 17.688 Z M 217.266 30.674 A 7.743 7.743 0 0 0 219.476 30.375 A 5.838 5.838 0 0 0 222.374 28.455 A 7.66 7.66 0 0 0 223.88 25.409 Q 224.168 24.271 224.204 22.931 A 14.392 14.392 0 0 0 224.209 22.544 A 10.812 10.812 0 0 0 223.631 18.957 A 9.587 9.587 0 0 0 222.1 16.172 A 7.21 7.21 0 0 0 220.035 14.345 A 6.6 6.6 0 0 0 216.683 13.491 A 7.701 7.701 0 0 0 214.525 13.777 A 5.646 5.646 0 0 0 211.597 15.755 A 7.98 7.98 0 0 0 210.137 18.829 Q 209.857 19.969 209.822 21.302 A 14.678 14.678 0 0 0 209.817 21.687 A 10.799 10.799 0 0 0 210.372 25.203 A 9.506 9.506 0 0 0 211.904 28.015 A 7.144 7.144 0 0 0 213.938 29.821 A 6.522 6.522 0 0 0 217.266 30.674 Z M 326.909 30.674 A 7.743 7.743 0 0 0 329.12 30.375 A 5.838 5.838 0 0 0 332.018 28.455 A 7.66 7.66 0 0 0 333.523 25.409 Q 333.811 24.271 333.847 22.931 A 14.392 14.392 0 0 0 333.853 22.544 A 10.812 10.812 0 0 0 333.275 18.957 A 9.587 9.587 0 0 0 331.743 16.172 A 7.21 7.21 0 0 0 329.679 14.345 A 6.6 6.6 0 0 0 326.327 13.491 A 7.701 7.701 0 0 0 324.169 13.777 A 5.646 5.646 0 0 0 321.24 15.755 A 7.98 7.98 0 0 0 319.78 18.829 Q 319.501 19.969 319.466 21.302 A 14.678 14.678 0 0 0 319.461 21.687 A 10.799 10.799 0 0 0 320.016 25.203 A 9.506 9.506 0 0 0 321.548 28.015 A 7.144 7.144 0 0 0 323.581 29.821 A 6.522 6.522 0 0 0 326.909 30.674 Z M 38.101 15.139 L 45.418 15.139 A 16.468 16.468 0 0 0 47.778 14.983 Q 51.134 14.495 52.383 12.481 A 4.224 4.224 0 0 0 52.967 10.727 A 5.316 5.316 0 0 0 52.998 10.141 A 6.791 6.791 0 0 0 52.914 9.045 Q 52.806 8.383 52.559 7.833 A 3.885 3.885 0 0 0 51.262 6.24 Q 50.405 5.625 49.428 5.23 A 7.519 7.519 0 0 0 48.494 4.926 Q 48.007 4.799 47.447 4.712 A 13.664 13.664 0 0 0 47.066 4.658 Q 44.714 4.329 42.297 4.329 A 13.686 13.686 0 0 0 41.2 4.369 Q 40.154 4.454 39.509 4.714 A 2.275 2.275 0 0 0 38.991 4.999 A 1.929 1.929 0 0 0 38.384 5.802 Q 38.112 6.438 38.101 7.413 A 7.324 7.324 0 0 0 38.101 7.493 L 38.101 15.139 Z M 439.365 39.507 A 26.011 26.011 0 0 0 441.14 39.45 Q 442.912 39.329 444.088 38.946 A 6.316 6.316 0 0 0 444.507 38.793 Q 446.198 38.106 446.893 37.215 A 2.736 2.736 0 0 0 446.946 37.145 A 3.536 3.536 0 0 0 447.599 35.426 A 4.549 4.549 0 0 0 447.627 34.915 A 1.599 1.599 0 0 0 446.729 33.565 Q 444.555 32.212 437.124 32.212 A 219.727 219.727 0 0 1 436.429 32.211 Q 434.53 32.205 434.219 32.164 A 0.091 0.091 0 0 1 434.158 32.146 A 8.314 8.314 0 0 0 433.351 33.086 Q 432.966 33.613 432.753 34.125 A 3.24 3.24 0 0 0 432.488 35.376 Q 432.488 39.507 439.365 39.507 Z M 438.992 13.052 A 6.753 6.753 0 0 0 436.868 13.374 A 5.772 5.772 0 0 0 434.96 14.436 A 4.455 4.455 0 0 0 433.315 17.667 A 5.856 5.856 0 0 0 433.301 18.084 A 4.885 4.885 0 0 0 433.725 20.14 A 4.787 4.787 0 0 0 435.004 21.797 A 6.049 6.049 0 0 0 438.527 23.222 A 7.871 7.871 0 0 0 439.168 23.247 A 7.306 7.306 0 0 0 440.915 23.049 A 5.194 5.194 0 0 0 443.156 21.896 Q 444.683 20.545 444.683 18.369 A 4.954 4.954 0 0 0 443.151 14.747 A 6.479 6.479 0 0 0 443.024 14.623 A 5.648 5.648 0 0 0 438.992 13.052 Z M 103.036 31.852 A 5.191 5.191 0 0 0 103.975 31.97 Q 103.931 33.179 102.81 34.08 A 1.081 1.081 0 0 0 102.658 34.226 A 0.71 0.71 0 0 0 102.481 34.695 A 0.416 0.416 0 0 0 102.587 34.988 Q 102.782 35.2 103.337 35.2 A 3.913 3.913 0 0 0 105.161 34.773 A 4.286 4.286 0 0 0 106.414 33.772 Q 107.666 32.344 107.666 30.388 Q 107.466 28.285 105.807 27.78 A 4.101 4.101 0 0 0 104.612 27.62 A 4.941 4.941 0 0 0 104.135 27.642 A 3.945 3.945 0 0 0 102.371 28.235 A 2.612 2.612 0 0 0 102.206 28.349 Q 101.404 28.95 101.404 29.971 A 2.694 2.694 0 0 0 101.405 30.053 Q 101.449 31.487 103.036 31.852 Z M 387.936 3.868 A 2.075 2.075 0 0 0 387.598 4.988 A 2.012 2.012 0 0 0 387.972 6.182 A 2.584 2.584 0 0 0 388.532 6.746 A 3.396 3.396 0 0 0 389.499 7.256 A 3.875 3.875 0 0 0 390.74 7.449 Q 392.014 7.449 392.893 6.691 A 3.044 3.044 0 0 0 393.025 6.57 A 2.359 2.359 0 0 0 393.772 4.812 A 1.955 1.955 0 0 0 393.32 3.527 A 2.607 2.607 0 0 0 392.728 3.01 A 4.731 4.731 0 0 0 392.269 2.745 A 3.729 3.729 0 0 0 390.575 2.329 A 2.77 2.77 0 0 0 389.351 2.612 A 3.5 3.5 0 0 0 388.532 3.175 A 4.199 4.199 0 0 0 388.397 3.302 Q 388.118 3.579 387.936 3.868 Z" vector-effect="non-scaling-stroke"/></g></svg>