<svg width="409.55999755859375px" height="81.08001098632812px" xmlns="http://www.w3.org/2000/svg" viewBox="45.220001220703125 34.45999450683594 409.55999755859375 81.08001098632812" style="background: rgba(0, 0, 0, 0) none repeat scroll 0% 0%;" preserveAspectRatio="xMidYMid"><defs><linearGradient id="editing-outline-gradient" x1="-0.41354545764260087" x2="1.4135454576426008" y1="0.09326335692419985" y2="0.9067366430758002"><stop offset="0" stop-color="#ee4208"></stop><stop offset="1" stop-color="#4139ff"></stop></linearGradient><filter id="editing-outline" x="-100%" y="-100%" width="300%" height="300%"><feMorphology in="SourceGraphic" operator="dilate" radius="1" result="outline"></feMorphology><feComposite operator="out" in="outline" in2="SourceAlpha"></feComposite></filter></defs><g filter="url(#editing-outline)"><g transform="translate(107.68499755859375, 92.93558883666992)"><path d="M14.83-14.86L14.83-14.86L12.14-14.92L12.14-14.92Q11.08-14.92 9.69-14.71L9.69-14.71L9.69-14.71Q9.63-13.53 9.45-11.66L9.45-11.66L9.45-11.66Q8.81-5.00 8.81-3.01L8.81-3.01L8.81-3.01Q8.81-1.03 8.87-0.21L8.87-0.21L6.02 0L6.96-14.96L0.51-15.32L0.51-15.32Q0.27-15.32 0.14-15.71L0.14-15.71L0.14-15.71Q0-16.11 0-16.44L0-16.44L0-16.44Q0-16.77 0.27-17.17L0.27-17.17L0.27-17.17Q0.54-17.56 0.91-17.56L0.91-17.56L0.91-17.56Q3.12-17.47 5.36-17.26L5.36-17.26L5.36-17.26Q9.51-16.89 12.41-16.89L12.41-16.89L14.29-16.95L14.29-16.95Q16.50-17.01 18.68-17.44L18.68-17.44L18.68-17.44Q19.16-17.35 19.28-15.92L19.28-15.92L19.28-15.92Q19.31-15.62 19.31-15.44L19.31-15.44L19.31-15.44Q17.32-14.86 14.83-14.86ZM21.28-20.10L21.28-20.10L21.28-20.10Q23.52-20.59 25.52-20.59L25.52-20.59L25.52-20.59Q27.52-20.59 29.08-20.43L29.08-20.43L29.08-20.43Q30.64-20.28 32.21-19.86L32.21-19.86L32.21-19.86Q35.54-18.92 36.33-17.32L36.33-17.32L36.33-17.32Q36.54-16.98 36.54-16.53L36.54-16.53L36.54-16.53Q36.54-15.20 34.21-13.65L34.21-13.65L34.21-13.65Q32.67-12.62 29.79-11.56L29.79-11.56L29.79-11.56Q36.84-11.17 39.36-9.51L39.36-9.51L39.36-9.51Q40.75-8.63 40.75-7.45L40.75-7.45L40.75-7.45Q40.75-5.81 38.45-4.06L38.45-4.06L38.45-4.06Q35.93-2.18 32.03-0.94L32.03-0.94L32.03-0.94Q28.43 0.21 25.34 0.21L25.34 0.21L25.34 0.21Q22.98 0.21 21.28-0.48L21.28-0.48L21.28-0.48Q21.22-2.42 21.13-4.48L21.13-4.48L21.13-4.48Q20.89-9.05 20.89-12.19L20.89-12.19L20.89-12.19Q20.89-15.32 21.10-18.71L21.10-18.71L21.10-18.71Q20.77-18.71 20.50-18.78L20.50-18.78L20.50-18.78Q20.22-18.86 20.22-19.38L20.22-19.38L20.22-19.38Q20.22-20.10 21.28-20.10ZM23.28-9.05L24.01-2.00L24.01-2.00Q28.88-2.27 32.00-3.16L32.00-3.16L32.00-3.16Q35.12-4.06 36.49-5.10L36.49-5.10L36.49-5.10Q37.87-6.15 37.87-7.11L37.87-7.11L37.87-7.11Q37.87-8.39 36.06-9.14L36.06-9.14L36.06-9.14Q34.09-9.93 30.83-9.93L30.83-9.93L30.83-9.93Q27.58-9.93 23.28-9.05L23.28-9.05ZM26.82-18.62L26.82-18.62L26.07-18.62L26.07-18.62Q23.58-18.62 23.28-18.10L23.28-18.10L22.98-12.02L22.98-12.02Q25.70-12.02 29.61-13.32L29.61-13.32L29.61-13.32Q32.15-14.20 33.33-15.26L33.33-15.26L33.33-15.26Q33.94-15.80 33.94-16.38L33.94-16.38L33.94-16.38Q33.94-16.95 33.50-17.33L33.50-17.33L33.50-17.33Q33.06-17.71 32.38-17.95L32.38-17.95L32.38-17.95Q31.70-18.19 30.86-18.33L30.86-18.33L30.86-18.33Q30.03-18.47 29.24-18.53L29.24-18.53L29.24-18.53Q28.03-18.62 26.82-18.62ZM46.05-8.54L46.05-8.54L46.05-8.54Q45.96-7.51 45.96-5.62L45.96-5.62L45.96-5.62Q45.96-3.72 46.53-1.03L46.53-1.03L44.14 0.18L43.05-8.05L43.05-8.05Q41.99-8.20 41.99-8.78L41.99-8.78L41.99-8.78Q41.99-9.20 42.49-9.78L42.49-9.78L42.49-9.78Q42.99-10.35 43.23-10.73L43.23-10.73L43.23-10.73Q43.47-11.11 43.52-11.58L43.52-11.58L43.52-11.58Q43.56-12.05 43.65-13.26L43.65-13.26L43.65-13.26Q43.75-14.47 43.82-15.83L43.82-15.83L43.82-15.83Q43.90-17.20 43.97-18.41L43.97-18.41L43.97-18.41Q44.05-19.62 44.05-20.10L44.05-20.10L44.05-20.10Q44.71-20.77 45.02-20.92L45.02-20.92L45.02-20.92Q45.77-21.31 46.05-20.62L46.05-20.62L45.86-11.08L45.86-11.08Q53.34-11.08 54.86-12.05L54.86-12.05L54.86-21.62L54.86-21.62Q55.04-22.13 56.55-22.13L56.55-22.13L56.55-22.13Q56.88-22.13 57.10-22.10L57.10-22.10L57.10-22.10Q57.10-21.52 57.14-20.36L57.14-20.36L57.14-20.36Q57.19-19.19 57.23-17.71L57.23-17.71L57.23-17.71Q57.28-16.23 57.34-14.58L57.34-14.58L57.34-14.58Q57.40-12.93 57.46-11.44L57.46-11.44L57.46-11.44Q57.55-8.36 57.61-6.90L57.61-6.90L57.61-6.90Q57.82-3.27 59.09-1.03L59.09-1.03L59.09-1.03Q57.73-0.48 56.10-0.48L56.10-0.48L56.10-0.48Q54.70-3.94 54.61-9.54L54.61-9.54L54.61-9.54Q52.62-9.60 51.89-9.60L51.89-9.60L51.89-9.60Q51.16-9.60 50.25-9.51L50.25-9.51L50.25-9.51Q48.38-9.38 46.05-8.54ZM59.46 2.51L61.58-2.60L61.58-2.60Q61.76-3.00 62-3.06L62-3.06L62-3.06Q62.24-3.12 62.51-3.12L62.51-3.12L62.51-3.12Q62.79-3.12 63.03-3.06L63.03-3.06L63.03-3.06Q63.45-2.94 63.63-2.54L63.63-2.54L63.63-2.54Q63.63-2.48 63.63-2.38L63.63-2.38L63.63-2.38Q63.63-2.27 63.51-1.98L63.51-1.98L63.51-1.98Q63.39-1.70 63.14-1.23L63.14-1.23L63.14-1.23Q62.88-0.76 62.58-0.26L62.58-0.26L62.58-0.26Q62.27 0.24 61.97 0.70L61.97 0.70L61.97 0.70Q61.67 1.15 61.53 1.39L61.53 1.39L61.53 1.39Q61.39 1.63 61.18 1.85L61.18 1.85L61.18 1.85Q60.46 2.57 59.82 2.57L59.82 2.57L59.82 2.57Q59.64 2.57 59.46 2.51L59.46 2.51ZM81.22-17.10L81.22-0.48L81.22-0.48Q81.22 0.03 80.50 0.03L80.50 0.03L80.50 0.03Q79.95 0.03 79.20-0.48L79.20-0.48L79.20-0.48Q78.83-1.30 78.83-4.39L78.83-4.39L78.83-4.39Q78.83-7.48 78.89-9.49L78.89-9.49L78.89-9.49Q78.95-11.50 79.01-13.20L79.01-13.20L79.01-13.20Q79.20-16.89 79.20-17.10L79.20-17.10L79.20-17.10Q80.07-17.62 80.65-17.62L80.65-17.62L80.65-17.62Q81.22-17.62 81.22-17.10L81.22-17.10ZM96.45-0.45L96.45-0.45L96.45-0.45Q96.45-0.58 96.53-0.82L96.53-0.82L96.53-0.82Q96.60-1.06 96.68-2.06L96.68-2.06L96.68-2.06Q96.75-3.06 96.80-4.47L96.80-4.47L96.80-4.47Q96.84-5.87 96.89-7.55L96.89-7.55L96.89-7.55Q96.94-9.23 96.98-10.99L96.98-10.99L96.98-10.99Q97.03-12.75 97.09-14.43L97.09-14.43L97.09-14.43Q97.15-16.11 97.27-17.50L97.27-17.50L97.27-17.50Q97.54-20.53 98.00-21.10L98.00-21.10L98.00-21.10Q98.24-21.80 99.63-21.80L99.63-21.80L99.63-21.80Q99.63-21.80 100.05-21.80L100.05-21.80L100.05-21.80Q100.05-20.65 99.80-16.95L99.80-16.95L99.80-16.95Q99.54-13.26 99.51-12.56L99.51-12.56L99.51-12.56Q101.48-13.56 103.31-14.73L103.31-14.73L103.31-14.73Q105.14-15.89 106.73-16.88L106.73-16.88L106.73-16.88Q108.32-17.86 109.62-18.51L109.62-18.51L109.62-18.51Q110.92-19.16 111.56-19.16L111.56-19.16L111.56-19.16Q112.62-19.16 112.62-18.35L112.62-18.35L112.62-18.35Q112.62-17.71 111.65-16.94L111.65-16.94L111.65-16.94Q110.68-16.17 109.23-15.33L109.23-15.33L109.23-15.33Q107.77-14.50 106.06-13.65L106.06-13.65L106.06-13.65Q104.35-12.81 102.90-12.00L102.90-12.00L102.90-12.00Q101.45-11.20 100.48-10.50L100.48-10.50L100.48-10.50Q99.51-9.81 99.51-9.29L99.51-9.29L99.51-9.29Q100.05-8.96 101.31-8.40L101.31-8.40L101.31-8.40Q102.57-7.84 104.13-7.13L104.13-7.13L104.13-7.13Q105.68-6.42 107.36-5.62L107.36-5.62L107.36-5.62Q109.04-4.81 110.44-4.00L110.44-4.00L110.44-4.00Q113.59-2.21 113.59-1.03L113.59-1.03L113.59-1.03Q113.59-0.64 113.07-0.48L113.07-0.48L113.07-0.48Q112.86-0.42 112.65-0.42L112.65-0.42L112.34-0.42L112.34-0.42Q110.89-0.42 109.62-1.12L109.62-1.12L109.62-1.12Q108.35-1.82 106.91-2.79L106.91-2.79L106.91-2.79Q105.47-3.75 103.66-4.80L103.66-4.80L103.66-4.80Q101.84-5.84 99.27-6.54L99.27-6.54L99.27-0.48L99.27-0.48Q99.21-0.36 98.72-0.21L98.72-0.21L98.72-0.21Q98.03 0 97.24 0L97.24 0L97.24 0Q96.45 0 96.45-0.45ZM126.51-4.78L126.54-6.63L126.54-6.63Q126.54-10.23 126.15-11.93L126.15-11.93L126.15-11.93Q126.39-12.38 125.42-12.38L125.42-12.38L125.42-12.38Q124.39-12.38 122.76-11.87L122.76-11.87L122.76-11.87Q121.12-11.35 120.09-10.84L120.09-10.84L120.09-10.84Q117.64-9.66 117.37-8.54L117.37-8.54L117.37-0.30L115.34-0.30L115.34-0.30Q114.95-1.33 114.95-6.08L114.95-6.08L114.95-6.08Q114.95-10.32 115.11-12.32L115.11-12.32L115.11-12.32Q115.28-14.32 115.37-14.59L115.37-14.59L115.37-14.59Q116.16-15.11 116.64-15.11L116.64-15.11L116.64-15.11Q117.40-15.11 117.40-13.32L117.40-13.32L117.40-13.32Q117.40-12.62 117.32-11.97L117.32-11.97L117.32-11.97Q117.25-11.32 117.25-11.08L117.25-11.08L117.25-11.08Q122.15-14.68 124.85-14.68L124.85-14.68L124.85-14.68Q127.91-14.68 128.33-9.75L128.33-9.75L128.33-9.75Q128.51-8.02 128.51-4.96L128.51-4.96L128.48-2.57L128.48-2.57Q128.48-1.24 128.54 0L128.54 0L128.54 0Q128.24 0.18 128.06 0.18L128.06 0.18L128.06 0.18Q127.97 0.15 127.66 0.09L127.66 0.09L127.66 0.09Q127.36 0.03 126.88 0L126.88 0L126.88 0Q126.57-1.21 126.54-2.47L126.54-2.47L126.54-2.47Q126.51-3.72 126.51-4.78L126.51-4.78ZM130.99-5.75L130.99-5.75L130.99-5.75Q130.99-9.32 134.08-11.50L134.08-11.50L134.08-11.50Q136.53-13.23 139.98-13.59L139.98-13.59L139.98-13.59Q140.17-13.59 140.83-13.59L140.83-13.59L140.83-13.59Q141.50-13.59 142.62-13.20L142.62-13.20L142.62-13.20Q145.10-12.35 146.01-10.20L146.01-10.20L146.01-10.20Q146.37-9.35 146.37-8.76L146.37-8.76L146.37-8.76Q146.37-8.17 146.34-7.93L146.34-7.93L146.34-7.93Q146.34-4.15 143.47-1.97L143.47-1.97L143.47-1.97Q140.80 0.03 136.81 0.03L136.81 0.03L136.81 0.03Q133.93 0.03 132.46-1.30L132.46-1.30L132.46-1.30Q130.99-2.63 130.99-5.75ZM133.08-5.03L133.08-5.03L133.08-5.03Q133.08-3.15 134.08-2.48L134.08-2.48L134.08-2.48Q134.84-2.00 136.62-2.00L136.62-2.00L136.62-2.00Q138.41-2.00 139.77-2.27L139.77-2.27L139.77-2.27Q141.13-2.54 142.19-3.21L142.19-3.21L142.19-3.21Q144.46-4.66 144.46-7.72L144.46-7.72L144.46-7.72Q144.46-9.54 143.50-10.69L143.50-10.69L143.50-10.69Q142.44-11.93 140.71-11.93L140.71-11.93L140.71-11.93Q139.53-11.72 138.33-11.47L138.33-11.47L138.33-11.47Q137.14-11.23 136.08-10.54L136.08-10.54L136.08-10.54Q133.78-9.05 133.08-5.03ZM159.18-8.36L159.18-8.36L159.18-8.36Q158.51-6.15 158.07-4.27L158.07-4.27L158.07-4.27Q157.63-2.39 157.21-1.15L157.21-1.15L157.21-1.15Q156.54 0.64 155.70 0.64L155.70 0.64L155.70 0.64Q155.24 0.64 154.67 0.21L154.67 0.21L154.67 0.21Q153.27-1.27 150.73-6.36L150.73-6.36L150.73-6.36Q148.25-11.32 148.25-12.56L148.25-12.56L148.25-12.56Q148.25-13.11 148.58-13.24L148.58-13.24L148.58-13.24Q148.92-13.38 149.34-13.26L149.34-13.26L149.34-13.26Q150.37-12.96 150.79-12.32L150.79-12.32L150.79-12.32Q151.00-12.02 151.31-11.26L151.31-11.26L152.06-9.38L152.06-9.38Q153.33-6.21 154.58-3.57L154.58-3.57L154.58-3.57Q155.24-4.60 155.85-6.24L155.85-6.24L156.79-8.84L156.79-8.84Q158.00-12.26 158.97-12.32L158.97-12.32L158.97-12.32Q159.72-12.81 163.51-6.96L163.51-6.96L163.51-6.96Q165.11-4.48 165.50-4.00L165.50-4.00L165.50-4.00Q165.78-4.00 166.16-5.81L166.16-5.81L166.16-5.81Q166.53-7.63 166.82-8.89L166.82-8.89L166.82-8.89Q167.11-10.14 167.53-11.23L167.53-11.23L167.53-11.23Q168.53-13.77 169.83-13.77L169.83-13.77L169.83-13.77Q170.26-13.77 170.42-13.49L170.42-13.49L170.42-13.49Q170.59-13.20 170.59-13.02L170.59-13.02L170.59-13.02Q170.59-12.84 170.59-12.75L170.59-12.75L170.59-12.75Q170.23-11.72 169.83-10.40L169.83-10.40L169.83-10.40Q169.44-9.08 169.00-7.70L169.00-7.70L169.00-7.70Q168.56-6.33 168.12-4.98L168.12-4.98L168.12-4.98Q167.68-3.63 167.26-2.54L167.26-2.54L167.26-2.54Q166.26-0.18 165.60 0L165.60 0L165.60 0Q165.08 0.24 163.93-1.18L163.93-1.18L163.93-1.18Q163.42-1.85 162.84-2.75L162.84-2.75L162.84-2.75Q162.27-3.66 161.63-4.63L161.63-4.63L161.63-4.63Q160.09-7.05 159.18-8.36ZM202.65-18.62L202.74-10.69L202.74-10.69Q202.74-1.48 201.98 0.09L201.98 0.09L199.77-0.09L199.77-0.09Q198.11-2.97 194.17-8.17L194.17-8.17L194.17-8.17Q192.63-10.23 191.10-12.26L191.10-12.26L191.10-12.26Q189.57-14.29 188.30-16.29L188.30-16.29L188.30-16.29Q187.70-13.59 187.70-5.51L187.70-5.51L187.70-5.51Q187.70-2.42 187.57-0.30L187.57-0.30L187.57-0.30Q187.00 0.24 186.32 0.24L186.32 0.24L186.32 0.24Q185.64 0.24 185.36 0.11L185.36 0.11L185.36 0.11Q185.09-0.03 185.09-0.35L185.09-0.35L185.09-0.35Q185.09-0.67 185.17-1.35L185.17-1.35L185.17-1.35Q185.24-2.03 185.35-3.63L185.35-3.63L185.35-3.63Q185.46-5.24 185.55-7.02L185.55-7.02L185.55-7.02Q185.79-11.69 185.79-15.06L185.79-15.06L185.79-15.06Q185.79-18.44 185.73-20.62L185.73-20.62L185.73-20.62Q186.39-21.22 186.76-21.49L186.76-21.49L186.76-21.49Q187.12-21.77 187.57-21.48L187.57-21.48L187.57-21.48Q188.03-21.19 188.74-20.24L188.74-20.24L188.74-20.24Q189.45-19.28 190.75-17.41L190.75-17.41L190.75-17.41Q195.20-11.08 199.50-5.54L199.50-5.54L200.08-20.62L200.08-20.62Q200.41-21.22 200.74-21.45L200.74-21.45L200.74-21.45Q201.08-21.68 201.62-21.68L201.62-21.68L201.62-21.68Q202.68-21.68 202.68-19.74L202.68-19.74L202.65-18.62ZM205.34-5.75L205.34-5.75L205.34-5.75Q205.34-9.32 208.43-11.50L208.43-11.50L208.43-11.50Q210.88-13.23 214.34-13.59L214.34-13.59L214.34-13.59Q214.52-13.59 215.18-13.59L215.18-13.59L215.18-13.59Q215.85-13.59 216.97-13.20L216.97-13.20L216.97-13.20Q219.45-12.35 220.36-10.20L220.36-10.20L220.36-10.20Q220.72-9.35 220.72-8.76L220.72-8.76L220.72-8.76Q220.72-8.17 220.69-7.93L220.69-7.93L220.69-7.93Q220.69-4.15 217.82-1.97L217.82-1.97L217.82-1.97Q215.15 0.03 211.16 0.03L211.16 0.03L211.16 0.03Q208.28 0.03 206.81-1.30L206.81-1.30L206.81-1.30Q205.34-2.63 205.34-5.75ZM207.43-5.03L207.43-5.03L207.43-5.03Q207.43-3.15 208.43-2.48L208.43-2.48L208.43-2.48Q209.19-2.00 210.98-2.00L210.98-2.00L210.98-2.00Q212.76-2.00 214.12-2.27L214.12-2.27L214.12-2.27Q215.49-2.54 216.55-3.21L216.55-3.21L216.55-3.21Q218.82-4.66 218.82-7.72L218.82-7.72L218.82-7.72Q218.82-9.54 217.85-10.69L217.85-10.69L217.85-10.69Q216.79-11.93 215.06-11.93L215.06-11.93L215.06-11.93Q213.88-11.72 212.69-11.47L212.69-11.47L212.69-11.47Q211.49-11.23 210.43-10.54L210.43-10.54L210.43-10.54Q208.13-9.05 207.43-5.03ZM226.60-2.91L226.60-2.91L226.66-7.75L226.66-7.75Q226.66-8.90 226.45-9.72L226.45-9.72L221.75-9.72L221.69-11.81L226.23-11.81L226.23-19.62L226.23-19.62Q226.32-19.89 226.60-20.16L226.60-20.16L226.60-20.16Q227.02-20.59 227.31-20.59L227.31-20.59L227.31-20.59Q227.60-20.59 227.81-20.53L227.81-20.53L227.81-20.53Q228.02-20.46 228.26-20.10L228.26-20.10L228.26-20.10Q228.75-18.10 228.75-14.08L228.75-14.08L228.75-14.08Q228.75-13.08 228.84-12.11L228.84-12.11L228.84-12.11Q229.81-12.23 230.77-12.23L230.77-12.23L230.77-12.23Q230.77-12.23 232.35-12.23L232.35-12.23L232.35-12.23Q232.92-12.23 233.41-12.29L233.41-12.29L233.32-10.11L228.90-10.23L229.05 0.21L229.05 0.21Q228.50 0.45 228.11 0.45L228.11 0.45L228.11 0.45Q226.60 0.45 226.60-2.91ZM248.79-0.42L248.79-0.42L248.79-0.42Q248.51 0.09 247.38 0.09L247.38 0.09L247.38 0.09Q246.24 0.09 246.24-0.73L246.24-0.73L246.24-0.73Q246.24-4.30 246.09-5.63L246.09-5.63L246.09-5.63Q245.82-8.57 244.94-8.78L244.94-8.78L244.94-8.78Q242.76-9.20 241.39-9.20L241.39-9.20L241.39-9.20Q240.01-9.20 239.11-8.37L239.11-8.37L239.11-8.37Q238.22-7.54 237.75-5.62L237.75-5.62L237.75-5.62Q237.28-3.69 237.07-0.21L237.07-0.21L234.74-0.21L234.74-0.21Q234.80-1.94 234.80-3.42L234.80-3.42L234.80-3.42Q234.80-4.90 234.74-6.95L234.74-6.95L234.74-6.95Q234.68-8.99 234.59-11.41L234.59-11.41L234.59-11.41Q234.44-14.20 234.44-16.12L234.44-16.12L234.44-16.12Q234.44-18.04 234.68-19.65L234.68-19.65L234.68-19.65Q234.98-20.22 235.56-20.22L235.56-20.22L235.56-20.22Q236.25-20.22 236.65-19.72L236.65-19.72L236.65-19.72Q237.04-19.22 237.07-18.83L237.07-18.83L236.92-13.83L236.92-13.83Q236.92-11.02 237.19-9.63L237.19-9.63L237.19-9.63Q239.92-11.44 242.82-11.44L242.82-11.44L242.82-11.44Q243.76-11.44 244.82-11.29L244.82-11.29L244.82-11.29Q247.09-10.11 247.79-8.78L247.79-8.78L247.79-8.78Q248.12-8.08 248.21-7.30L248.21-7.30L248.21-7.30Q248.30-6.51 248.33-5.51L248.33-5.51L248.33-5.51Q248.51-2.06 248.79-0.42ZM250.72-14.23L252.63-14.23L252.63-14.23Q253.03-8.57 253.30-1.12L253.30-1.12L253.30-1.12Q253.12-0.18 251.84-0.18L251.84-0.18L251.84-0.18Q251.51-0.18 251.16-0.32L251.16-0.32L251.16-0.32Q250.82-0.45 250.72-0.70L250.72-0.70L250.72-14.23ZM249.82-18.35L249.82-18.35L249.82-18.35Q249.82-19.41 251.06-19.41L251.06-19.41L251.06-19.41Q251.88-19.41 252.39-19.04L252.39-19.04L252.39-19.04Q252.48-18.71 252.48-18.39L252.48-18.39L252.48-18.39Q252.48-18.07 252.24-17.77L252.24-17.77L252.24-17.77Q252.00-17.47 251.51-17.47L251.51-17.47L251.51-17.47Q251.03-17.47 250.54-17.69L250.54-17.69L250.54-17.69Q250.06-17.92 249.82-18.35ZM266.38-4.78L266.41-6.63L266.41-6.63Q266.41-10.23 266.01-11.93L266.01-11.93L266.01-11.93Q266.25-12.38 265.29-12.38L265.29-12.38L265.29-12.38Q264.26-12.38 262.62-11.87L262.62-11.87L262.62-11.87Q260.99-11.35 259.96-10.84L259.96-10.84L259.96-10.84Q257.51-9.66 257.23-8.54L257.23-8.54L257.23-0.30L255.21-0.30L255.21-0.30Q254.81-1.33 254.81-6.08L254.81-6.08L254.81-6.08Q254.81-10.32 254.98-12.32L254.98-12.32L254.98-12.32Q255.14-14.32 255.24-14.59L255.24-14.59L255.24-14.59Q256.02-15.11 256.51-15.11L256.51-15.11L256.51-15.11Q257.26-15.11 257.26-13.32L257.26-13.32L257.26-13.32Q257.26-12.62 257.19-11.97L257.19-11.97L257.19-11.97Q257.11-11.32 257.11-11.08L257.11-11.08L257.11-11.08Q262.02-14.68 264.71-14.68L264.71-14.68L264.71-14.68Q267.77-14.68 268.19-9.75L268.19-9.75L268.19-9.75Q268.37-8.02 268.37-4.96L268.37-4.96L268.34-2.57L268.34-2.57Q268.34-1.24 268.40 0L268.40 0L268.40 0Q268.10 0.18 267.92 0.18L267.92 0.18L267.92 0.18Q267.83 0.15 267.53 0.09L267.53 0.09L267.53 0.09Q267.22 0.03 266.74 0L266.74 0L266.74 0Q266.44-1.21 266.41-2.47L266.41-2.47L266.41-2.47Q266.38-3.72 266.38-4.78L266.38-4.78ZM278.85 12.96L278.85 12.96L278.42 12.93L278.42 12.93Q277.52 12.93 276.49 13.05L276.49 13.05L275.34 13.05L275.34 13.05Q273.52 13.05 272.49 12.35L272.49 12.35L272.49 12.35Q271.95 11.99 271.95 11.26L271.95 11.26L278.91 10.93L278.91 10.93Q282.12 10.84 282.12 7.48L282.12 7.48L282.12 7.48Q282.12 7.36 282.12 7.07L282.12 7.07L282.12 7.07Q282.12 6.78 282.12 5.81L282.12 5.81L282.27-3.94L282.27-3.94Q282.27-4.45 282.24-4.78L282.24-4.78L282.24-4.78Q277.33-0.21 272.79-0.21L272.79-0.21L272.79-0.21Q272.40-0.21 272.01-0.24L272.01-0.24L272.01-0.24Q269.98-0.24 269.98-2.03L269.98-2.03L269.98-2.03Q270.04-3.42 270.80-5.10L270.80-5.10L270.80-5.10Q271.55-6.78 272.75-8.34L272.75-8.34L272.75-8.34Q273.94-9.90 275.46-11.14L275.46-11.14L275.46-11.14Q277.79-13.05 279.97-13.05L279.97-13.05L279.97-13.05Q282.51-13.05 284.15-10.35L284.15-10.35L284.15-10.35Q284.63-3.15 284.63-0.12L284.63-0.12L284.63-0.12Q284.63 2.91 284.54 4.84L284.54 4.84L284.54 4.84Q284.45 6.78 284.13 8.39L284.13 8.39L284.13 8.39Q283.81 9.99 283.30 10.93L283.30 10.93L283.30 10.93Q282.78 11.87 282.09 12.29L282.09 12.29L282.09 12.29Q280.94 12.96 278.85 12.96ZM280.67-10.84L280.67-10.84L280.67-10.84Q280.30-10.96 279.65-10.96L279.65-10.96L279.65-10.96Q279-10.96 277.97-10.41L277.97-10.41L277.97-10.41Q276.94-9.87 276.00-9.01L276.00-9.01L276.00-9.01Q275.06-8.14 274.25-7.08L274.25-7.08L274.25-7.08Q272.25-4.48 272.25-2.94L272.25-2.94L272.25-2.94Q272.25-2.45 272.52-2.21L272.52-2.21L272.52-2.21Q272.73-2.09 273.05-2.09L273.05-2.09L273.05-2.09Q273.37-2.09 273.97-2.19L273.97-2.19L273.97-2.19Q274.58-2.30 275.62-2.74L275.62-2.74L275.62-2.74Q276.67-3.18 277.79-3.88L277.79-3.88L277.79-3.88Q278.91-4.57 279.82-5.42L279.82-5.42L279.82-5.42Q281.94-7.36 281.94-9.20L281.94-9.20L281.94-9.20Q281.94-10.32 280.67-10.84Z" fill="url(#editing-outline-gradient)"></path></g></g><style>text {
  font-size: 64px;
  font-family: Arial Black;
  dominant-baseline: central;
  text-anchor: middle;
}</style></svg>