<svg width="937.519970703125px" height="125.28000488281249px" xmlns="http://www.w3.org/2000/svg" viewBox="-218.75998535156248 12.359997558593754 937.519970703125 125.28000488281249" style="background: rgba(0, 0, 0, 0) none repeat scroll 0% 0%;" preserveAspectRatio="xMidYMid"><defs><linearGradient id="editing-gradient-gradient" x1="0" x2="1" y1="0.5" y2="0.5" gradientUnits="objectBoundingBox"><stop offset="0" stop-color="#f0f"></stop><stop offset="1" stop-color="#0ff"></stop></linearGradient></defs><g><g transform="translate(-43.89001403748989, 96.375)"><path d="M23.20-26.33L23.20-26.33L23.20-26.33Q24.05-28.04 24.05-29.64L24.05-29.64L24.05-29.64Q24.05-31.24 23.88-32.12L23.88-32.12L23.88-32.12Q23.71-33.00 23.31-33.69L23.31-33.69L23.31-33.69Q22.46-35.17 20.75-35.17L20.75-35.17L20.75-35.17Q18.64-35.17 16.93-33.63L16.93-33.63L16.93-33.63Q15.11-32.03 15.11-29.53L15.11-29.53L15.11-29.53Q15.11-27.93 16.22-26.70L16.22-26.70L16.22-26.70Q17.33-25.48 19.04-24.34L19.04-24.34L19.04-24.34Q20.75-23.20 22.69-22.06L22.69-22.06L22.69-22.06Q24.62-20.92 26.33-19.55L26.33-19.55L26.33-19.55Q30.27-16.42 30.27-12.20L30.27-12.20L30.27-12.20Q30.27-9.35 28.76-6.93L28.76-6.93L28.76-6.93Q27.25-4.50 24.74-2.74L24.74-2.74L24.74-2.74Q19.27 1.14 12.03 1.14L12.03 1.14L12.03 1.14Q6.16 1.14 3.14-0.77L3.14-0.77L3.14-0.77Q0.11-2.68 0.11-5.59L0.11-5.59L0.11-5.59Q0.11-10.77 4.16-12.08L4.16-12.08L4.16-12.08Q5.30-12.48 7.04-12.48L7.04-12.48L7.04-12.48Q8.78-12.48 10.77-11.74L10.77-11.74L10.77-11.74Q9.86-9.41 9.86-7.30L9.86-7.30L9.86-7.30Q9.86-2.74 13.11-2.74L13.11-2.74L13.11-2.74Q15.22-2.74 16.96-4.28L16.96-4.28L16.96-4.28Q18.70-5.81 18.70-7.55L18.70-7.55L18.70-7.55Q18.70-9.29 17.58-10.54L17.58-10.54L17.58-10.54Q16.47-11.80 14.82-12.80L14.82-12.80L14.82-12.80Q13.17-13.79 11.26-14.76L11.26-14.76L11.26-14.76Q9.35-15.73 7.70-17.10L7.70-17.10L7.70-17.10Q3.82-20.23 3.82-25.25L3.82-25.25L3.82-25.25Q3.82-28.50 5.42-31.04L5.42-31.04L5.42-31.04Q7.01-33.57 9.58-35.28L9.58-35.28L9.58-35.28Q14.71-38.76 21.00-38.76L21.00-38.76L21.00-38.76Q27.30-38.76 30.35-36.88L30.35-36.88L30.35-36.88Q33.40-35.00 33.40-31.81L33.40-31.81L33.40-31.81Q33.40-29.01 31.24-27.25L31.24-27.25L31.24-27.25Q29.36-25.76 27.07-25.76L27.07-25.76L27.07-25.76Q24.80-25.76 23.20-26.33ZM52.90-2.39L52.90-2.39L52.90-2.39Q50.16 1.14 43.38 1.14L43.38 1.14L43.38 1.14Q39.84 1.14 37.28-1.00L37.28-1.00L37.28-1.00Q34.71-3.14 34.71-6.21L34.71-6.21L34.71-6.21Q34.71-7.92 34.88-8.78L34.88-8.78L38.70-29.07L50.27-30.21L46.11-8.21L46.11-8.21Q45.89-6.95 45.89-6.21L45.89-6.21L45.89-6.21Q45.89-2.91 47.88-2.91L47.88-2.91L47.88-2.91Q50.10-2.91 51.70-5.93L51.70-5.93L51.70-5.93Q52.21-6.90 52.44-8.15L52.44-8.15L56.49-29.07L67.72-30.21L63.50-7.98L63.50-7.98Q63.33-7.13 63.33-6.21L63.33-6.21L63.33-6.21Q63.33-5.30 63.84-4.30L63.84-4.30L63.84-4.30Q64.35-3.31 66.01-3.08L66.01-3.08L66.01-3.08Q65.66-1.71 64.47-0.80L64.47-0.80L64.47-0.80Q61.96 1.14 59.25 1.14L59.25 1.14L59.25 1.14Q56.54 1.14 54.95 0.17L54.95 0.17L54.95 0.17Q53.35-0.80 52.90-2.39ZM98.55-23.71L98.55-23.71L98.55-23.71Q98.55-21.32 96.56-19.84L96.56-19.84L96.56-19.84Q94.56-18.35 91.31-18.35L91.31-18.35L91.31-18.35Q89.95-18.35 89.15-18.75L89.15-18.75L89.15-18.75Q89.78-20.23 89.97-22.09L89.97-22.09L89.97-22.09Q90.17-23.94 90.17-24.45L90.17-24.45L90.17-24.45Q90.17-26.85 88.52-26.85L88.52-26.85L88.52-26.85Q87.38-26.85 86.10-25.42L86.10-25.42L86.10-25.42Q84.82-24.00 83.73-21.77L83.73-21.77L83.73-21.77Q81.34-16.64 81.34-11.46L81.34-11.46L81.34-11.46Q81.34-8.61 82.42-7.32L82.42-7.32L82.42-7.32Q83.51-6.04 85.90-6.04L85.90-6.04L85.90-6.04Q89.21-6.04 91.83-8.78L91.83-8.78L91.83-8.78Q92.57-9.63 92.97-10.60L92.97-10.60L92.97-10.60Q95.13-9.46 95.13-6.33L95.13-6.33L95.13-6.33Q95.13-3.14 91.60-1.03L91.60-1.03L91.60-1.03Q87.95 1.14 82.14 1.14L82.14 1.14L82.14 1.14Q70.57 1.14 70.57-11.12L70.57-11.12L70.57-11.12Q70.57-20.06 75.64-25.19L75.64-25.19L75.64-25.19Q80.54-30.21 89.55-30.21L89.55-30.21L89.55-30.21Q98.55-30.21 98.55-23.71ZM128.76-6.33L128.76-6.33L128.76-6.33Q128.76-3.82 131.33-3.08L131.33-3.08L131.33-3.08Q130.70-0.97 128.25 0.17L128.25 0.17L128.25 0.17Q126.20 1.14 123.95 1.14L123.95 1.14L123.95 1.14Q121.70 1.14 120.53 0.54L120.53 0.54L120.53 0.54Q119.36-0.06 118.73-1.03L118.73-1.03L118.73-1.03Q117.71-2.51 117.71-5.30L117.71-5.30L117.71-5.30Q117.71-6.95 118.62-11.51L118.62-11.51L119.42-15.85L119.42-15.85Q120.38-20.80 120.38-22.63L120.38-22.63L120.38-22.63Q120.38-25.82 118.62-25.82L118.62-25.82L118.62-25.82Q116.39-25.82 114.97-22.57L114.97-22.57L114.97-22.57Q114.40-21.32 114-19.44L114-19.44L110.12 0L98.67 1.14L106.70-39.90L118.16-41.04L117.71-38.76L117.71-38.76Q116.11-29.98 114.74-27.02L114.74-27.02L114.74-27.02Q117.93-30.21 123.80-30.21L123.80-30.21L123.80-30.21Q130.02-30.21 131.16-26.11L131.16-26.11L131.16-26.11Q131.56-24.80 131.56-23.66L131.56-23.66L131.56-23.66Q131.56-22.52 131.47-21.63L131.47-21.63L131.47-21.63Q131.38-20.75 131.10-19.15L131.10-19.15L130.36-15.05L129.05-8.61L129.05-8.61Q128.76-7.30 128.76-6.33ZM172.71 1.14L172.71 1.14L172.71 1.14Q165.41 1.14 164.73-9.23L164.73-9.23L154.93-9.23L154.93-9.23Q153.79-6.61 152.99-4.33L152.99-4.33L151.51 0L143.53 0L161.48-37.62L173.74-37.62L176.13-9.92L176.13-9.92Q176.70-3.93 178.98-2.17L178.98-2.17L178.98-2.17Q177.33 1.14 172.71 1.14ZM159.83-20.63L156.69-13.40L164.56-13.40L163.88-28.04L163.88-29.58L159.83-20.63ZM223.78-11.80L223.78-11.80L223.78-11.80Q225.26-10.72 225.26-8.41L225.26-8.41L225.26-8.41Q225.26-6.10 224.27-4.47L224.27-4.47L224.27-4.47Q223.27-2.85 221.33-1.60L221.33-1.60L221.33-1.60Q217.17 1.08 209.90 1.08L209.90 1.08L209.90 1.08Q202.63 1.08 198.67-2.71L198.67-2.71L198.67-2.71Q194.71-6.50 194.71-13.22L194.71-13.22L194.71-13.22Q194.71-22.74 199.67-29.98L199.67-29.98L199.67-29.98Q203.43-35.34 210.16-37.62L210.16-37.62L210.16-37.62Q213.64-38.76 217.06-38.76L217.06-38.76L217.06-38.76Q220.48-38.76 222.59-38.30L222.59-38.30L222.59-38.30Q224.69-37.85 226.29-36.94L226.29-36.94L226.29-36.94Q229.77-34.94 229.77-31.75L229.77-31.75L229.77-31.75Q229.77-28.84 227.03-26.68L227.03-26.68L227.03-26.68Q224.52-24.74 222.47-24.74L222.47-24.74L222.47-24.74Q220.42-24.74 219.56-25.02L219.56-25.02L219.56-25.02Q219.79-27.07 219.79-28.41L219.79-28.41L219.79-28.41Q219.79-29.75 219.74-30.72L219.74-30.72L219.74-30.72Q219.68-31.69 219.39-32.60L219.39-32.60L219.39-32.60Q218.82-34.71 217.08-34.71L217.08-34.71L217.08-34.71Q215.35-34.71 213.61-33.09L213.61-33.09L213.61-33.09Q211.87-31.46 210.39-28.73L210.39-28.73L210.39-28.73Q207.02-22.52 207.02-15.16L207.02-15.16L207.02-15.16Q207.02-11.63 209.02-9.60L209.02-9.60L209.02-9.60Q211.01-7.58 215.29-7.58L215.29-7.58L215.29-7.58Q218.48-7.58 221.50-9.69L221.50-9.69L221.50-9.69Q222.81-10.60 223.78-11.80ZM258.67-6.33L258.67-6.33L258.67-6.33Q258.67-3.82 261.23-3.08L261.23-3.08L261.23-3.08Q260.60-0.97 258.15 0.17L258.15 0.17L258.15 0.17Q256.10 1.14 253.85 1.14L253.85 1.14L253.85 1.14Q251.60 1.14 250.43 0.54L250.43 0.54L250.43 0.54Q249.26-0.06 248.63-1.03L248.63-1.03L248.63-1.03Q247.61-2.51 247.61-5.30L247.61-5.30L247.61-5.30Q247.61-6.95 248.52-11.51L248.52-11.51L249.32-15.85L249.32-15.85Q250.29-20.80 250.29-22.63L250.29-22.63L250.29-22.63Q250.29-25.82 248.52-25.82L248.52-25.82L248.52-25.82Q246.30-25.82 244.87-22.57L244.87-22.57L244.87-22.57Q244.30-21.32 243.90-19.44L243.90-19.44L240.03 0L228.57 1.14L236.61-39.90L248.06-41.04L247.61-38.76L247.61-38.76Q246.01-29.98 244.64-27.02L244.64-27.02L244.64-27.02Q247.84-30.21 253.71-30.21L253.71-30.21L253.71-30.21Q259.92-30.21 261.06-26.11L261.06-26.11L261.06-26.11Q261.46-24.80 261.46-23.66L261.46-23.66L261.46-23.66Q261.46-22.52 261.37-21.63L261.37-21.63L261.37-21.63Q261.29-20.75 261.00-19.15L261.00-19.15L260.26-15.05L258.95-8.61L258.95-8.61Q258.67-7.30 258.67-6.33ZM268.33-1.71L268.33-1.71L268.33-1.71Q266.99-3.19 266.39-5.53L266.39-5.53L266.39-5.53Q265.79-7.87 265.79-11.69L265.79-11.69L265.79-11.69Q265.79-15.50 267.10-18.98L267.10-18.98L267.10-18.98Q268.41-22.46 270.81-24.97L270.81-24.97L270.81-24.97Q275.71-30.21 283.80-30.21L283.80-30.21L283.80-30.21Q286.71-30.21 288.82-29.24L288.82-29.24L298.57-30.21L294.35-7.98L294.35-7.98Q294.18-7.30 294.18-6.04L294.18-6.04L294.18-6.04Q294.18-4.79 294.95-3.99L294.95-3.99L294.95-3.99Q295.72-3.19 296.86-3.08L296.86-3.08L296.86-3.08Q296.29-1.14 294.21 0L294.21 0L294.21 0Q292.13 1.14 289.79 1.14L289.79 1.14L289.79 1.14Q287.45 1.14 285.88 0.26L285.88 0.26L285.88 0.26Q284.32-0.63 283.86-2.11L283.86-2.11L283.86-2.11Q282.95-0.68 281.01 0.23L281.01 0.23L281.01 0.23Q279.07 1.14 276.48 1.14L276.48 1.14L276.48 1.14Q273.88 1.14 271.78 0.46L271.78 0.46L271.78 0.46Q269.67-0.23 268.33-1.71ZM280.35-24.85L280.35-24.85L280.35-24.85Q279.70-23.83 279.13-22.09L279.13-22.09L279.13-22.09Q278.56-20.35 277.62-15.70L277.62-15.70L277.62-15.70Q276.68-11.06 276.68-7.75L276.68-7.75L276.68-7.75Q276.68-4.45 277.19-3.48L277.19-3.48L277.19-3.48Q277.70-2.51 278.62-2.51L278.62-2.51L278.62-2.51Q280.44-2.51 281.78-4.25L281.78-4.25L281.78-4.25Q283.12-5.99 283.63-9.06L283.63-9.06L286.65-25.76L286.65-25.76Q285.46-26.79 284.06-26.79L284.06-26.79L284.06-26.79Q282.66-26.79 281.84-26.33L281.84-26.33L281.84-26.33Q281.01-25.88 280.35-24.85ZM313.84 1.14L313.84 1.14L313.84 1.14Q301.30 1.14 301.30-10.66L301.30-10.66L301.30-10.66Q301.30-19.04 305.92-24.45L305.92-24.45L305.92-24.45Q310.82-30.21 319.31-30.21L319.31-30.21L319.31-30.21Q325.47-30.21 328.61-27.36L328.61-27.36L328.61-27.36Q331.74-24.51 331.74-18.53L331.74-18.53L331.74-18.53Q331.74-9.41 326.84-4.10L326.84-4.10L326.84-4.10Q322.05 1.14 313.84 1.14ZM315.32-23.66L315.32-23.66L315.32-23.66Q314.64-22.12 314.10-19.81L314.10-19.81L314.10-19.81Q313.56-17.50 312.87-13.85L312.87-13.85L312.87-13.85Q312.19-10.20 312.19-5.70L312.19-5.70L312.19-5.70Q312.19-4.22 312.67-3.25L312.67-3.25L312.67-3.25Q313.16-2.28 314.47-2.28L314.47-2.28L314.47-2.28Q315.78-2.28 316.61-2.91L316.61-2.91L316.61-2.91Q317.43-3.53 318.06-5.02L318.06-5.02L318.06-5.02Q319.20-7.64 320.11-12.51L320.11-12.51L320.11-12.51Q321.02-17.39 321.11-19.49L321.11-19.49L321.11-19.49Q321.19-21.60 321.19-23.17L321.19-23.17L321.19-23.17Q321.19-24.74 320.74-25.76L320.74-25.76L320.74-25.76Q320.28-26.79 319.00-26.79L319.00-26.79L319.00-26.79Q317.72-26.79 316.86-25.99L316.86-25.99L316.86-25.99Q316.01-25.19 315.32-23.66ZM336.01-5.70L336.01-5.70L336.01-5.70Q336.01-7.24 336.81-11.12L336.81-11.12L339.83-26.51L336.47-26.51L336.70-28.21L336.70-28.21Q343.54-30.27 350.15-35.28L350.15-35.28L352.89-35.28L351.52-29.07L355.97-29.07L355.45-26.51L351.06-26.51L348.16-11.12L348.16-11.12Q347.42-7.58 347.42-6.38L347.42-6.38L347.42-6.38Q347.42-3.65 349.81-3.08L349.81-3.08L349.81-3.08Q349.24-1.14 347.19 0L347.19 0L347.19 0Q345.13 1.14 342.23 1.14L342.23 1.14L342.23 1.14Q339.32 1.14 337.67-0.68L337.67-0.68L337.67-0.68Q336.01-2.51 336.01-5.70ZM369.36-3.14L369.36-3.14L369.36-3.14Q367.59 1.14 361.95 1.14L361.95 1.14L361.95 1.14Q359.04 1.14 357.22-0.85L357.22-0.85L357.22-0.85Q355.68-2.62 355.68-4.39L355.68-4.39L355.68-4.39Q355.68-9.01 357.79-18.01L357.79-18.01L359.90-29.07L371.47-30.21L367.99-12.20L367.99-12.20Q367.02-7.98 367.02-6.50L367.02-6.50L367.02-6.50Q367.02-3.25 369.36-3.14ZM360.92-36.99L360.92-36.99L360.92-36.99Q360.92-39.22 362.78-40.41L362.78-40.41L362.78-40.41Q364.63-41.61 367.31-41.61L367.31-41.61L367.31-41.61Q369.99-41.61 371.61-40.41L371.61-40.41L371.61-40.41Q373.24-39.22 373.24-36.99L373.24-36.99L373.24-36.99Q373.24-34.77 371.44-33.63L371.44-33.63L371.44-33.63Q369.65-32.49 366.97-32.49L366.97-32.49L366.97-32.49Q364.29-32.49 362.61-33.63L362.61-33.63L362.61-33.63Q360.92-34.77 360.92-36.99ZM402.19-23.71L402.19-23.71L402.19-23.71Q402.19-21.32 400.20-19.84L400.20-19.84L400.20-19.84Q398.20-18.35 394.95-18.35L394.95-18.35L394.95-18.35Q393.58-18.35 392.79-18.75L392.79-18.75L392.79-18.75Q393.41-20.23 393.61-22.09L393.61-22.09L393.61-22.09Q393.81-23.94 393.81-24.45L393.81-24.45L393.81-24.45Q393.81-26.85 392.16-26.85L392.16-26.85L392.16-26.85Q391.02-26.85 389.74-25.42L389.74-25.42L389.74-25.42Q388.45-24.00 387.37-21.77L387.37-21.77L387.37-21.77Q384.98-16.64 384.98-11.46L384.98-11.46L384.98-11.46Q384.98-8.61 386.06-7.32L386.06-7.32L386.06-7.32Q387.14-6.04 389.54-6.04L389.54-6.04L389.54-6.04Q392.84-6.04 395.47-8.78L395.47-8.78L395.47-8.78Q396.21-9.63 396.61-10.60L396.61-10.60L396.61-10.60Q398.77-9.46 398.77-6.33L398.77-6.33L398.77-6.33Q398.77-3.14 395.24-1.03L395.24-1.03L395.24-1.03Q391.59 1.14 385.78 1.14L385.78 1.14L385.78 1.14Q374.20 1.14 374.20-11.12L374.20-11.12L374.20-11.12Q374.20-20.06 379.28-25.19L379.28-25.19L379.28-25.19Q384.18-30.21 393.19-30.21L393.19-30.21L393.19-30.21Q402.19-30.21 402.19-23.71ZM416.90-35.34L416.90-35.34L416.90-35.34Q417.70-36.94 419.43-37.82L419.43-37.82L419.43-37.82Q421.17-38.70 423.57-38.70L423.57-38.70L423.57-38.70Q427.33-38.70 429.58-36.00L429.58-36.00L429.58-36.00Q431.83-33.29 431.83-27.36L431.83-27.36L431.83-7.01L444.88-37.56L451.61-37.56L453.15-8.72L452.98-7.07L466.55-37.56L474.35-37.56L456.11 0L443.97 0L442.83-17.33L435.31 0L421.57 0L419.86-27.36L419.86-27.36Q419.69-30.44 418.86-32.46L418.86-32.46L418.86-32.46Q418.04-34.48 416.90-35.34ZM483.36 1.14L483.36 1.14L483.36 1.14Q470.82 1.14 470.82-10.66L470.82-10.66L470.82-10.66Q470.82-19.04 475.44-24.45L475.44-24.45L475.44-24.45Q480.34-30.21 488.83-30.21L488.83-30.21L488.83-30.21Q494.99-30.21 498.12-27.36L498.12-27.36L498.12-27.36Q501.26-24.51 501.26-18.53L501.26-18.53L501.26-18.53Q501.26-9.41 496.36-4.10L496.36-4.10L496.36-4.10Q491.57 1.14 483.36 1.14ZM484.84-23.66L484.84-23.66L484.84-23.66Q484.16-22.12 483.62-19.81L483.62-19.81L483.62-19.81Q483.08-17.50 482.39-13.85L482.39-13.85L482.39-13.85Q481.71-10.20 481.71-5.70L481.71-5.70L481.71-5.70Q481.71-4.22 482.19-3.25L482.19-3.25L482.19-3.25Q482.68-2.28 483.99-2.28L483.99-2.28L483.99-2.28Q485.30-2.28 486.12-2.91L486.12-2.91L486.12-2.91Q486.95-3.53 487.58-5.02L487.58-5.02L487.58-5.02Q488.72-7.64 489.63-12.51L489.63-12.51L489.63-12.51Q490.54-17.39 490.63-19.49L490.63-19.49L490.63-19.49Q490.71-21.60 490.71-23.17L490.71-23.17L490.71-23.17Q490.71-24.74 490.26-25.76L490.26-25.76L490.26-25.76Q489.80-26.79 488.52-26.79L488.52-26.79L488.52-26.79Q487.24-26.79 486.38-25.99L486.38-25.99L486.38-25.99Q485.53-25.19 484.84-23.66ZM522.46-16.02L522.46-16.02L522.46-16.02Q524.51-19.66 524.51-23.37L524.51-23.37L524.51-23.37Q524.51-25.82 522.75-25.82L522.75-25.82L522.75-25.82Q521.38-25.82 519.95-23.48L519.95-23.48L519.95-23.48Q518.47-21.15 518.02-18.13L518.02-18.13L515.05 0L503.25 1.14L509.07-29.07L518.47-30.21L517.45-24.45L517.45-24.45Q520.24-30.21 526.51-30.21L526.51-30.21L526.51-30.21Q529.82-30.21 531.61-28.50L531.61-28.50L531.61-28.50Q533.41-26.79 533.41-23.28L533.41-23.28L533.41-23.28Q533.41-19.78 531.10-17.56L531.10-17.56L531.10-17.56Q528.79-15.33 524.86-15.33L524.86-15.33L524.86-15.33Q523.15-15.33 522.46-16.02ZM547.94-3.14L547.94-3.14L547.94-3.14Q546.17 1.14 540.53 1.14L540.53 1.14L540.53 1.14Q537.68 1.14 535.86-0.85L535.86-0.85L535.86-0.85Q534.38-2.51 534.38-4.39L534.38-4.39L534.38-4.39Q534.38-8.66 536.37-18.01L536.37-18.01L540.53-39.90L552.10-41.04L546.57-12.20L546.57-12.20Q545.60-7.98 545.60-6.50L545.60-6.50L545.60-6.50Q545.60-3.25 547.94-3.14ZM570.74-30.21L570.74-30.21L570.74-30.21Q572.79-30.21 574.39-29.75L574.39-29.75L574.39-29.75Q574.45-29.98 574.56-30.61L574.56-30.61L574.85-32.38L574.85-32.38Q575.07-33.52 575.41-35.40L575.41-35.40L576.33-39.90L587.67-41.04L581.34-7.98L581.34-7.98Q581.29-7.64 581.29-7.07L581.29-7.07L581.29-6.16L581.29-6.16Q581.29-4.90 581.91-3.96L581.91-3.96L581.91-3.96Q582.54-3.02 583.57-3.02L583.57-3.02L583.57-3.02Q582.43-0.34 578.95 0.80L578.95 0.80L578.95 0.80Q577.75 1.14 576.07 1.14L576.07 1.14L576.07 1.14Q574.39 1.14 572.85 0.26L572.85 0.26L572.85 0.26Q571.31-0.63 570.86-2.11L570.86-2.11L570.86-2.11Q569.94-0.63 568.12 0.26L568.12 0.26L568.12 0.26Q566.29 1.14 563.64 1.14L563.64 1.14L563.64 1.14Q560.99 1.14 558.80 0.46L558.80 0.46L558.80 0.46Q556.61-0.23 555.24-1.71L555.24-1.71L555.24-1.71Q552.73-4.62 552.73-11.23L552.73-11.23L552.73-11.23Q552.73-19.78 557.75-24.97L557.75-24.97L557.75-24.97Q562.76-30.21 570.74-30.21ZM570.34-26.79L570.34-26.79L570.34-26.79Q568.23-26.79 567.09-24.51L567.09-24.51L567.09-24.51Q565.95-22.23 564.78-16.59L564.78-16.59L564.78-16.59Q563.62-10.94 563.62-5.87L563.62-5.87L563.62-5.87Q563.62-2.39 565.67-2.39L565.67-2.39L565.67-2.39Q567.49-2.39 568.77-4.22L568.77-4.22L568.77-4.22Q570.06-6.04 570.57-9.06L570.57-9.06L573.65-25.76L573.65-25.76Q572.45-26.79 570.34-26.79Z" fill="url(#editing-gradient-gradient)"></path></g></g><style>text {
  font-size: 64px;
  font-family: Arial Black;
  dominant-baseline: central;
  text-anchor: middle;
}</style></svg>