<svg width="955.7999755859374px" height="132.95999755859373px" xmlns="http://www.w3.org/2000/svg" viewBox="-227.89998779296872 8.520001220703136 955.7999755859374 132.95999755859373" style="background: rgba(0, 0, 0, 0) none repeat scroll 0% 0%;" preserveAspectRatio="xMidYMid"><defs><filter id="editing-jagged" x="-100%" y="-100%" width="300%" height="300%"><feTurbulence result="turb" baseFrequency="0.1" numOctaves="1" seed="1"></feTurbulence><feDisplacementMap in="SourceGraphic" in2="turb" scale="10"></feDisplacementMap></filter></defs><g filter="url(#editing-jagged)"><g transform="translate(-93.34502649307251, 100.65500068664551)"><path d="M26.94-38.94L26.94-38.94L26.94-38.94Q26.63-39.06 26.19-39.38L26.19-39.38L26.19-39.38Q25.75-39.69 24.94-39.97L24.94-39.97L24.94-39.97Q24.13-40.25 22.88-40.44L22.88-40.44L22.88-40.44Q21.63-40.63 19.69-40.50L19.69-40.50L19.69-46.81L19.69-46.81Q22.44-46.75 25.28-46.22L25.28-46.22L25.28-46.22Q28.13-45.69 29.88-44.56L29.88-44.56L29.88-44.56Q29.50-43.75 29-42.78L29-42.78L29-42.78Q28.50-41.81 28.06-40.97L28.06-40.97L28.06-40.97Q27.63-40.13 27.31-39.56L27.31-39.56L27.31-39.56Q27-39 26.94-38.94ZM5.38-33.94L5.38-33.94L5.38-33.94Q5.38-36.69 6.31-38.88L6.31-38.88L6.31-38.88Q7.25-41.06 8.84-42.72L8.84-42.72L8.84-42.72Q10.44-44.38 12.59-45.34L12.59-45.34L12.59-45.34Q14.75-46.31 17.13-46.63L17.13-46.63L17.13-40.06L17.13-40.06Q15.13-39.38 13.81-37.66L13.81-37.66L13.81-37.66Q12.50-35.94 12.50-34.19L12.50-34.19L12.50-34.19Q12.50-31.75 13.81-30.25L13.81-30.25L13.81-30.25Q15.13-28.75 17.13-27.63L17.13-27.63L17.13-20.50L17.13-20.50Q15.06-21.50 13-22.66L13-22.66L13-22.66Q10.94-23.81 9.25-25.38L9.25-25.38L9.25-25.38Q7.56-26.94 6.47-29L6.47-29L6.47-29Q5.38-31.06 5.38-33.94ZM5.06-3.06L6.38-8.44L6.38-8.44Q7.25-7.94 8.59-7.47L8.59-7.47L8.59-7.47Q9.94-7 11.38-6.59L11.38-6.59L11.38-6.59Q12.81-6.19 14.25-5.94L14.25-5.94L14.25-5.94Q15.69-5.69 16.94-5.69L16.94-5.69L17.13-5.69L17.13 0.25L17 0.25L17 0.25Q15.50 0.25 13.91 0.09L13.91 0.09L13.91 0.09Q12.31-0.06 10.69-0.44L10.69-0.44L10.69-0.44Q9.06-0.81 7.59-1.47L7.59-1.47L7.59-1.47Q6.13-2.13 5.06-3.06L5.06-3.06ZM19.69-19.06L19.69-26.38L19.69-26.38Q21.75-25.44 23.91-24.38L23.91-24.38L23.91-24.38Q26.06-23.31 27.81-21.78L27.81-21.78L27.81-21.78Q29.56-20.25 30.69-18.06L30.69-18.06L30.69-18.06Q31.81-15.88 31.81-12.63L31.81-12.63L31.81-12.63Q31.81-10.38 30.97-8.25L30.97-8.25L30.97-8.25Q30.13-6.13 28.59-4.41L28.59-4.41L28.59-4.41Q27.06-2.69 24.81-1.50L24.81-1.50L24.81-1.50Q22.56-0.31 19.69 0.06L19.69 0.06L19.69-5.94L19.69-5.94Q24.81-7.19 24.81-12.75L24.81-12.75L24.81-12.75Q24.81-14.94 23.38-16.38L23.38-16.38L23.38-16.38Q21.94-17.81 19.69-19.06L19.69-19.06ZM46.63-35.25L46.63-16.06L46.63-16.06Q46.63-13.88 46.81-11.97L46.81-11.97L46.81-11.97Q47-10.06 47.63-8.63L47.63-8.63L47.63-8.63Q48.25-7.19 49.50-6.31L49.50-6.31L49.50-6.31Q50.75-5.44 52.81-5.44L52.81-5.44L52.81-5.44Q53.63-5.44 55.13-5.69L55.13-5.69L55.13-5.69Q56.63-5.94 58-6.50L58-6.50L58-1.88L58-1.88Q56.38-1 54.47-0.34L54.47-0.34L54.47-0.34Q52.56 0.31 50.69 0.31L50.69 0.31L50.69 0.31Q49.19 0.31 48 0.03L48 0.03L48 0.03Q46.81-0.25 45.78-0.84L45.78-0.84L45.78-0.84Q44.75-1.44 43.81-2.19L43.81-2.19L43.81-2.19Q42.88-2.94 41.94-3.88L41.94-3.88L41.94-3.88Q40.88-4.94 40.25-6.34L40.25-6.34L40.25-6.34Q39.63-7.75 39.34-9.28L39.34-9.28L39.34-9.28Q39.06-10.81 39.03-12.38L39.03-12.38L39.03-12.38Q39-13.94 39-15.44L39-15.44L39-35.25L46.63-35.25ZM60.56-35.25L68.19-35.25L68.19 0L61.38 0L60.56-3.63L60.56-35.25ZM105.63-30.19L102.25-26.13L102.25-26.13Q101.31-27.25 99.66-28.22L99.66-28.22L99.66-28.22Q98-29.19 95.25-29.38L95.25-29.38L95.25-35.38L95.25-35.38Q98.69-35.19 101.16-33.91L101.16-33.91L101.16-33.91Q103.63-32.63 105.63-30.19L105.63-30.19ZM95.25 0.25L95.25-5.94L95.25-5.94Q97.50-6.19 99.09-7.03L99.09-7.03L99.09-7.03Q100.69-7.88 102.13-9L102.13-9L104.94-4.94L104.94-4.94Q103-2.50 100.75-1.22L100.75-1.22L100.75-1.22Q98.50 0.06 95.25 0.25L95.25 0.25ZM77.81-17.63L77.81-17.63L77.81-17.63Q77.81-21.19 78.84-24.31L78.84-24.31L78.84-24.31Q79.88-27.44 81.88-29.81L81.88-29.81L81.88-29.81Q83.88-32.19 86.59-33.66L86.59-33.66L86.59-33.66Q89.31-35.13 92.69-35.38L92.69-35.38L92.69-29.31L92.69-29.31Q89.56-28.63 87.69-25.47L87.69-25.47L87.69-25.47Q85.81-22.31 85.81-17.81L85.81-17.81L85.81-17.81Q85.81-15.50 86.28-13.47L86.28-13.47L86.28-13.47Q86.75-11.44 87.63-9.88L87.63-9.88L87.63-9.88Q88.50-8.31 89.78-7.25L89.78-7.25L89.78-7.25Q91.06-6.19 92.69-5.94L92.69-5.94L92.69 0.25L92.69 0.25Q89.25 0.06 86.50-1.41L86.50-1.41L86.50-1.41Q83.75-2.88 81.81-5.28L81.81-5.28L81.81-5.28Q79.88-7.69 78.84-10.88L78.84-10.88L78.84-10.88Q77.81-14.06 77.81-17.63ZM115.38 0L115.38-48.56L122.94-48.56L122.94 0L115.38 0ZM141.63-31.38L141.63-31.38L141.63-31.38Q142.69-30.31 143.28-28.91L143.28-28.91L143.28-28.91Q143.88-27.50 144.16-25.97L144.16-25.97L144.16-25.97Q144.44-24.44 144.50-22.88L144.50-22.88L144.50-22.88Q144.56-21.31 144.56-19.81L144.56-19.81L144.56-1.25L144.56 0L136.94 0L136.94-19.19L136.94-19.19Q136.94-21.31 136.75-23.25L136.75-23.25L136.75-23.25Q136.56-25.19 135.88-26.69L135.88-26.69L135.88-26.69Q135.19-28.19 134-29.03L134-29.03L134-29.03Q132.81-29.88 130.69-29.88L130.69-29.88L130.69-29.88Q129.81-29.88 128.34-29.59L128.34-29.59L128.34-29.59Q126.88-29.31 125.50-28.69L125.50-28.69L125.50-33.50L125.50-33.50Q127.19-34.38 129.16-35L129.16-35L129.16-35Q131.13-35.63 133-35.63L133-35.63L133-35.63Q135.81-35.63 137.75-34.47L137.75-34.47L137.75-34.47Q139.69-33.31 141.63-31.38ZM192.69-46L208.69 0L200.94 0L189-34.50L176.94 0L169.13 0L185.25-46L192.69-46ZM184.75-14.63L193.13-14.63L194.94-9.56L183-9.56L184.75-14.63ZM266.69-41.81L261.50-37.19L261.50-37.19Q260.06-38.81 258.44-39.63L258.44-39.63L258.44-39.63Q256.81-40.44 254.94-40.56L254.94-40.56L254.94-46.75L254.94-46.75Q261.94-46.44 266.69-41.81L266.69-41.81ZM254.94 0.31L254.94-5.88L254.94-5.88Q256.81-6.06 258.47-6.88L258.47-6.88L258.47-6.88Q260.13-7.69 261.50-9.25L261.50-9.25L266.69-4.69L266.69-4.69Q264.31-2.38 261.38-1.13L261.38-1.13L261.38-1.13Q258.44 0.13 254.94 0.31L254.94 0.31ZM234.69-23.25L234.69-23.25L234.69-23.25Q234.69-28.81 236.03-33.06L236.03-33.06L236.03-33.06Q237.38-37.31 239.75-40.25L239.75-40.25L239.75-40.25Q242.13-43.19 245.34-44.81L245.34-44.81L245.34-44.81Q248.56-46.44 252.38-46.75L252.38-46.75L252.38-40.50L252.38-40.50Q250.31-40.19 248.50-39.09L248.50-39.09L248.50-39.09Q246.69-38 245.31-35.94L245.31-35.94L245.31-35.94Q243.94-33.88 243.16-30.72L243.16-30.72L243.16-30.72Q242.38-27.56 242.31-23.25L242.31-23.25L242.31-23.25Q242.38-18.88 243.16-15.75L243.16-15.75L243.16-15.75Q243.94-12.63 245.31-10.50L245.31-10.50L245.31-10.50Q246.69-8.38 248.53-7.25L248.53-7.25L248.53-7.25Q250.38-6.13 252.38-5.88L252.38-5.88L252.38 0.25L252.38 0.25Q248.56 0 245.34-1.63L245.34-1.63L245.34-1.63Q242.13-3.25 239.75-6.19L239.75-6.19L239.75-6.19Q237.38-9.13 236.03-13.41L236.03-13.41L236.03-13.41Q234.69-17.69 234.69-23.25ZM277.06 0L277.06-48.56L284.63-48.56L284.63 0L277.06 0ZM303.31-31.38L303.31-31.38L303.31-31.38Q304.38-30.31 304.97-28.91L304.97-28.91L304.97-28.91Q305.56-27.50 305.84-25.97L305.84-25.97L305.84-25.97Q306.13-24.44 306.19-22.88L306.19-22.88L306.19-22.88Q306.25-21.31 306.25-19.81L306.25-19.81L306.25-1.25L306.25 0L298.63 0L298.63-19.19L298.63-19.19Q298.63-21.31 298.44-23.25L298.44-23.25L298.44-23.25Q298.25-25.19 297.56-26.69L297.56-26.69L297.56-26.69Q296.88-28.19 295.69-29.03L295.69-29.03L295.69-29.03Q294.50-29.88 292.38-29.88L292.38-29.88L292.38-29.88Q291.50-29.88 290.03-29.59L290.03-29.59L290.03-29.59Q288.56-29.31 287.19-28.69L287.19-28.69L287.19-33.50L287.19-33.50Q288.88-34.38 290.84-35L290.84-35L290.84-35Q292.81-35.63 294.69-35.63L294.69-35.63L294.69-35.63Q297.50-35.63 299.44-34.47L299.44-34.47L299.44-34.47Q301.38-33.31 303.31-31.38ZM321.25-10.63L321.25-10.63L321.25-10.63Q321.25-7.81 322.41-6.44L322.41-6.44L322.41-6.44Q323.56-5.06 325.75-4.81L325.75-4.81L325.75 0.25L325.75 0.25Q325.50 0.31 324.94 0.31L324.94 0.31L324.94 0.31Q322.81 0.31 320.84-0.25L320.84-0.25L320.84-0.25Q318.88-0.81 317.38-2.06L317.38-2.06L317.38-2.06Q315.88-3.31 315.03-5.38L315.03-5.38L315.03-5.38Q314.19-7.44 314.19-10.44L314.19-10.44L314.19-10.44Q314.19-13.31 315.41-15.41L315.41-15.41L315.41-15.41Q316.63-17.50 318.53-18.84L318.53-18.84L318.53-18.84Q320.44-20.19 322.88-20.84L322.88-20.84L322.88-20.84Q325.31-21.50 327.81-21.50L327.81-21.50L330.56-21.50L330.56-17.06L329.19-17.06L329.19-17.06Q327.94-17.06 326.56-16.81L326.56-16.81L326.56-16.81Q325.19-16.56 324-15.88L324-15.88L324-15.88Q322.81-15.19 322.03-13.91L322.03-13.91L322.03-13.91Q321.25-12.63 321.25-10.63ZM340.69-10.94L340.69-10.44L340.69-10.44Q340.69-9.94 340.75-8.97L340.75-8.97L340.75-8.97Q340.81-8 341-7L341-7L341-7Q341.19-6 341.59-5.19L341.59-5.19L341.59-5.19Q342-4.38 342.69-4.13L342.69-4.13L340.69 0.06L340.69 0.06Q339.88 0.06 338.97-0.31L338.97-0.31L338.97-0.31Q338.06-0.69 337.22-1.38L337.22-1.38L337.22-1.38Q336.38-2.06 335.78-2.91L335.78-2.91L335.78-2.91Q335.19-3.75 334.88-4.75L334.88-4.75L334.88-4.75Q334.25-3.19 332.41-1.97L332.41-1.97L332.41-1.97Q330.56-0.75 328.31-0.19L328.31-0.19L328.31-4.94L328.31-4.94Q329.81-5.25 331.03-6.16L331.03-6.16L331.03-6.16Q332.25-7.06 333.13-8.31L333.13-8.31L333.13-21.50L333.13-21.50Q333.13-24.56 332.81-26.38L332.81-26.38L332.81-26.38Q332.50-28.19 331.75-29.03L331.75-29.03L331.75-29.03Q331-29.88 329.91-30.09L329.91-30.09L329.91-30.09Q328.81-30.31 327.31-30.31L327.31-30.31L327.31-30.31Q325.94-30.31 324.72-29.97L324.72-29.97L324.72-29.97Q323.50-29.63 322.47-29.16L322.47-29.16L322.47-29.16Q321.44-28.69 320.66-28.13L320.66-28.13L320.66-28.13Q319.88-27.56 319.50-27.25L319.50-27.25L316.69-31.56L316.69-31.56Q317.31-32.25 318.56-32.97L318.56-32.97L318.56-32.97Q319.81-33.69 321.44-34.25L321.44-34.25L321.44-34.25Q323.06-34.81 324.97-35.16L324.97-35.16L324.97-35.16Q326.88-35.50 328.94-35.50L328.94-35.50L328.94-35.50Q330.81-35.50 332.59-35.13L332.59-35.13L332.59-35.13Q334.38-34.75 335.84-33.88L335.84-33.88L335.84-33.88Q337.31-33 338.41-31.53L338.41-31.53L338.41-31.53Q339.50-30.06 339.94-27.88L339.94-27.88L339.94-27.88Q340.38-25.69 340.53-23.47L340.53-23.47L340.53-23.47Q340.69-21.25 340.69-19.06L340.69-19.06L340.69-10.94ZM369.19-29.56L369.19-35.44L369.19-35.44Q372.63-35.25 375.44-33.78L375.44-33.78L375.44-33.78Q378.25-32.31 380.16-29.91L380.16-29.91L380.16-29.91Q382.06-27.50 383.13-24.31L383.13-24.31L383.13-24.31Q384.19-21.13 384.19-17.50L384.19-17.50L384.19-17.50Q384.19-13.88 383.09-10.72L383.09-10.72L383.09-10.72Q382-7.56 380.06-5.22L380.06-5.22L380.06-5.22Q378.13-2.88 375.31-1.44L375.31-1.44L375.31-1.44Q372.50 0 369.19 0.25L369.19 0.25L369.19-5.75L369.19-5.75Q372.31-6.44 374.28-9.69L374.28-9.69L374.28-9.69Q376.25-12.94 376.25-17.50L376.25-17.50L376.25-17.50Q376.25-19.81 375.78-21.84L375.78-21.84L375.78-21.84Q375.31-23.88 374.38-25.50L374.38-25.50L374.38-25.50Q373.44-27.13 372.13-28.19L372.13-28.19L372.13-28.19Q370.81-29.25 369.19-29.56L369.19-29.56ZM351.75-17.63L351.75-17.63L351.75-17.63Q351.75-21.25 352.81-24.38L352.81-24.38L352.81-24.38Q353.88-27.50 355.84-29.84L355.84-29.84L355.84-29.84Q357.81-32.19 360.56-33.63L360.56-33.63L360.56-33.63Q363.31-35.06 366.63-35.38L366.63-35.38L366.63-29.56L366.63-29.56Q363.50-28.88 361.63-25.63L361.63-25.63L361.63-25.63Q359.75-22.38 359.75-17.81L359.75-17.81L359.75-17.81Q359.75-15.50 360.22-13.44L360.22-13.44L360.22-13.44Q360.69-11.38 361.56-9.75L361.56-9.75L361.56-9.75Q362.44-8.13 363.72-7.06L363.72-7.06L363.72-7.06Q365-6 366.63-5.75L366.63-5.75L366.63 0.25L366.63 0.25Q363.19 0 360.44-1.47L360.44-1.47L360.44-1.47Q357.69-2.94 355.75-5.31L355.75-5.31L355.75-5.31Q353.81-7.69 352.78-10.88L352.78-10.88L352.78-10.88Q351.75-14.06 351.75-17.63ZM404.06-30.13L404.06-10.69L404.06-10.69Q404.06-8.56 404.63-7.38L404.63-7.38L404.63-7.38Q405.19-6.19 406.22-5.56L406.22-5.56L406.22-5.56Q407.25-4.94 408.53-4.78L408.53-4.78L408.53-4.78Q409.81-4.63 411.25-4.63L411.25-4.63L411.25 0L411.25 0Q410.44 0.13 409.63 0.19L409.63 0.19L409.63 0.19Q408.94 0.25 407.97 0.28L407.97 0.28L407.97 0.28Q407 0.31 406.06 0.31L406.06 0.31L406.06 0.31Q405.13 0.31 404.16 0.25L404.16 0.25L404.16 0.25Q403.19 0.19 402.50 0.06L402.50 0.06L402.50 0.06Q400.38-0.31 399.19-1.78L399.19-1.78L399.19-1.78Q398-3.25 397.41-5.03L397.41-5.03L397.41-5.03Q396.81-6.81 396.66-8.50L396.66-8.50L396.66-8.50Q396.50-10.19 396.50-11.13L396.50-11.13L396.50-30.13L391.88-30.13L391.88-35.25L396.50-35.25L396.50-45.25L404.06-45.25L404.06-35.25L409.69-35.25L409.69-30.13L404.06-30.13ZM427.69-35.25L427.69 0L420.06 0L420.06-35.25L427.69-35.25ZM428.38-46.50L428.38-46.50L428.38-46.50Q428.38-44.63 427.06-43.34L427.06-43.34L427.06-43.34Q425.75-42.06 423.88-42.06L423.88-42.06L423.88-42.06Q422-42.06 420.72-43.38L420.72-43.38L420.72-43.38Q419.44-44.69 419.44-46.50L419.44-46.50L419.44-46.50Q419.44-48.38 420.75-49.69L420.75-49.69L420.75-49.69Q422.06-51 423.88-51L423.88-51L423.88-51Q425.75-51 427.06-49.69L427.06-49.69L427.06-49.69Q428.38-48.38 428.38-46.50ZM465.13-30.19L461.75-26.13L461.75-26.13Q460.81-27.25 459.16-28.22L459.16-28.22L459.16-28.22Q457.50-29.19 454.75-29.38L454.75-29.38L454.75-35.38L454.75-35.38Q458.19-35.19 460.66-33.91L460.66-33.91L460.66-33.91Q463.13-32.63 465.13-30.19L465.13-30.19ZM454.75 0.25L454.75-5.94L454.75-5.94Q457-6.19 458.59-7.03L458.59-7.03L458.59-7.03Q460.19-7.88 461.63-9L461.63-9L464.44-4.94L464.44-4.94Q462.50-2.50 460.25-1.22L460.25-1.22L460.25-1.22Q458 0.06 454.75 0.25L454.75 0.25ZM437.31-17.63L437.31-17.63L437.31-17.63Q437.31-21.19 438.34-24.31L438.34-24.31L438.34-24.31Q439.38-27.44 441.38-29.81L441.38-29.81L441.38-29.81Q443.38-32.19 446.09-33.66L446.09-33.66L446.09-33.66Q448.81-35.13 452.19-35.38L452.19-35.38L452.19-29.31L452.19-29.31Q449.06-28.63 447.19-25.47L447.19-25.47L447.19-25.47Q445.31-22.31 445.31-17.81L445.31-17.81L445.31-17.81Q445.31-15.50 445.78-13.47L445.78-13.47L445.78-13.47Q446.25-11.44 447.13-9.88L447.13-9.88L447.13-9.88Q448-8.31 449.28-7.25L449.28-7.25L449.28-7.25Q450.56-6.19 452.19-5.94L452.19-5.94L452.19 0.25L452.19 0.25Q448.75 0.06 446-1.41L446-1.41L446-1.41Q443.25-2.88 441.31-5.28L441.31-5.28L441.31-5.28Q439.38-7.69 438.34-10.88L438.34-10.88L438.34-10.88Q437.31-14.06 437.31-17.63ZM499.69-46.06L507.81-6.31L516.56-46.06L519.50-46.06L519.50-29.38L512.69 0.25L502.88 0.25L491.19-46.06L499.69-46.06ZM533.19-6.31L542-46.06L550.50-46.06L538.06 0.25L528.31 0.25L522.06-28.19L522.06-46.06L525.06-46.06L533.19-6.31ZM576.88-29.56L576.88-35.44L576.88-35.44Q580.31-35.25 583.13-33.78L583.13-33.78L583.13-33.78Q585.94-32.31 587.84-29.91L587.84-29.91L587.84-29.91Q589.75-27.50 590.81-24.31L590.81-24.31L590.81-24.31Q591.88-21.13 591.88-17.50L591.88-17.50L591.88-17.50Q591.88-13.88 590.78-10.72L590.78-10.72L590.78-10.72Q589.69-7.56 587.75-5.22L587.75-5.22L587.75-5.22Q585.81-2.88 583-1.44L583-1.44L583-1.44Q580.19 0 576.88 0.25L576.88 0.25L576.88-5.75L576.88-5.75Q580-6.44 581.97-9.69L581.97-9.69L581.97-9.69Q583.94-12.94 583.94-17.50L583.94-17.50L583.94-17.50Q583.94-19.81 583.47-21.84L583.47-21.84L583.47-21.84Q583-23.88 582.06-25.50L582.06-25.50L582.06-25.50Q581.13-27.13 579.81-28.19L579.81-28.19L579.81-28.19Q578.50-29.25 576.88-29.56L576.88-29.56ZM559.44-17.63L559.44-17.63L559.44-17.63Q559.44-21.25 560.50-24.38L560.50-24.38L560.50-24.38Q561.56-27.50 563.53-29.84L563.53-29.84L563.53-29.84Q565.50-32.19 568.25-33.63L568.25-33.63L568.25-33.63Q571-35.06 574.31-35.38L574.31-35.38L574.31-29.56L574.31-29.56Q571.19-28.88 569.31-25.63L569.31-25.63L569.31-25.63Q567.44-22.38 567.44-17.81L567.44-17.81L567.44-17.81Q567.44-15.50 567.91-13.44L567.91-13.44L567.91-13.44Q568.38-11.38 569.25-9.75L569.25-9.75L569.25-9.75Q570.13-8.13 571.41-7.06L571.41-7.06L571.41-7.06Q572.69-6 574.31-5.75L574.31-5.75L574.31 0.25L574.31 0.25Q570.88 0 568.13-1.47L568.13-1.47L568.13-1.47Q565.38-2.94 563.44-5.31L563.44-5.31L563.44-5.31Q561.50-7.69 560.47-10.88L560.47-10.88L560.47-10.88Q559.44-14.06 559.44-17.63ZM601.69-35.25L608.44-35.25L609.25-31.63L609.25-12.50L609.25-12.38L609.25 0L601.69 0L601.69-35.25ZM611.81-27.31L611.81-33.69L611.81-33.69Q613.38-34.56 615.56-35.03L615.56-35.03L615.56-35.03Q617.75-35.50 621.50-35.50L621.50-35.50L621.50-27.63L621.50-27.63Q619.75-28.13 617.25-28.19L617.25-28.19L617.25-28.19Q615.88-28.19 614.47-27.97L614.47-27.97L614.47-27.97Q613.06-27.75 611.81-27.31L611.81-27.31ZM637.06-48.56L637.06-10.75L637.06-10.75Q637.06-8.63 637.63-7.41L637.63-7.41L637.63-7.41Q638.19-6.19 639.19-5.59L639.19-5.59L639.19-5.59Q640.19-5 641.47-4.81L641.47-4.81L641.47-4.81Q642.75-4.63 644.25-4.63L644.25-4.63L644.25 0L644.25 0Q643.44 0.13 642.56 0.19L642.56 0.19L642.56 0.19Q641.88 0.25 640.94 0.28L640.94 0.28L640.94 0.28Q640 0.31 639.06 0.31L639.06 0.31L639.06 0.31Q638.13 0.31 637.19 0.25L637.19 0.25L637.19 0.25Q636.25 0.19 635.50 0.06L635.50 0.06L635.50 0.06Q633.38-0.38 632.19-1.81L632.19-1.81L632.19-1.81Q631-3.25 630.38-5.03L630.38-5.03L630.38-5.03Q629.75-6.81 629.59-8.50L629.59-8.50L629.59-8.50Q629.44-10.19 629.44-11.13L629.44-11.13L629.44-11.88L629.44-48.56L637.06-48.56ZM674-48.56L681.63-48.56L681.63 0L674.44 0L674-4.19L674-48.56ZM650-18.13L650-18.13L650-18.13Q650-23 651.34-26.31L651.34-26.31L651.34-26.31Q652.69-29.63 654.81-31.69L654.81-31.69L654.81-31.69Q656.94-33.75 659.53-34.66L659.53-34.66L659.53-34.66Q662.13-35.56 664.63-35.56L664.63-35.56L664.63-35.56Q666.56-35.56 668.31-35.13L668.31-35.13L668.31-35.13Q670.06-34.69 671.44-33.88L671.44-33.88L671.44-27.25L671.44-27.25Q670.38-28.38 669.06-29.06L669.06-29.06L669.06-29.06Q667.75-29.75 666.13-29.75L666.13-29.75L666.13-29.75Q664.19-29.75 662.69-28.78L662.69-28.78L662.69-28.78Q661.19-27.81 660.16-26.13L660.16-26.13L660.16-26.13Q659.13-24.44 658.56-22.25L658.56-22.25L658.56-22.25Q658-20.06 658-17.56L658-17.56L658-17.56Q658-15.06 658.63-12.91L658.63-12.91L658.63-12.91Q659.25-10.75 660.31-9.13L660.31-9.13L660.31-9.13Q661.38-7.50 662.91-6.56L662.91-6.56L662.91-6.56Q664.44-5.63 666.25-5.63L666.25-5.63L666.25-5.63Q669.31-5.63 671.44-8.06L671.44-8.06L671.44-1.56L671.44-1.56Q669.94-0.75 667.97-0.22L667.97-0.22L667.97-0.22Q666 0.31 663.81 0.31L663.81 0.31L663.81 0.31Q661.31 0.31 658.91-0.59L658.91-0.59L658.91-0.59Q656.50-1.50 654.63-3.56L654.63-3.56L654.63-3.56Q652.25-6.25 651.13-10.22L651.13-10.22L651.13-10.22Q650-14.19 650-18.13Z" fill="#444"></path></g></g><style>text {
  font-size: 64px;
  font-family: Arial Black;
  dominant-baseline: central;
  text-anchor: middle;
}</style></svg>